<?xml version="1.0" encoding="UTF-8" standalone="no"?>
<!DOCTYPE svg PUBLIC "-//W3C//DTD SVG 1.1//EN" "http://www.w3.org/Graphics/SVG/1.1/DTD/svg11.dtd">
<svg width="100%" height="100%" viewBox="0 0 77 62" version="1.1" xmlns="http://www.w3.org/2000/svg" xmlns:xlink="http://www.w3.org/1999/xlink" xml:space="preserve" xmlns:serif="http://www.serif.com/" style="fill-rule:evenodd;clip-rule:evenodd;stroke-linejoin:round;stroke-miterlimit:1.41421;">
    <rect id="Artboard1" x="0" y="0" width="76.957" height="62" style="fill:none;"/>
    <clipPath id="_clip1">
        <rect id="Artboard11" serif:id="Artboard1" x="0" y="0" width="76.957" height="62"/>
    </clipPath>
    <g clip-path="url(#_clip1)">
        <path d="M37.937,58.358C30.204,50.265 18.993,48.87 12.302,48.855C10.715,48.85 9.424,47.561 9.424,45.98L9.424,2.875C9.424,2.103 9.724,1.379 10.27,0.834C10.81,0.296 11.524,0 12.284,0L12.291,0C18.997,0.016 31.195,1.569 37.542,11.791C37.801,12.208 37.937,12.711 37.937,13.247L37.938,13.197C37.946,12.679 38.082,12.195 38.333,11.791C44.68,1.569 56.878,0.016 63.584,0L63.591,0C64.35,0 65.065,0.296 65.605,0.834C66.15,1.378 66.451,2.103 66.451,2.875L66.451,45.98C66.451,47.561 65.16,48.85 63.573,48.854C56.881,48.87 45.671,50.265 37.937,58.358L37.937,58.358Z" style="fill:rgb(250,91,53);fill-rule:nonzero;"/>
        <path d="M72.999,9.942L70.915,9.942L70.915,45.982C70.915,50.018 67.626,53.309 63.584,53.319C57.909,53.333 48.55,54.442 41.923,60.715C53.385,57.909 65.469,59.733 72.356,61.302C73.215,61.498 74.104,61.296 74.793,60.747C75.479,60.199 75.873,59.38 75.873,58.502L75.873,12.817C75.873,11.232 74.584,9.942 72.999,9.942Z" style="fill:rgb(207,58,23);fill-rule:nonzero;"/>
        <path d="M4.958,45.982L4.958,9.942L2.874,9.942C1.29,9.942 0,11.232 0,12.817L0,58.501C0,59.38 0.394,60.198 1.08,60.746C1.768,61.295 2.656,61.498 3.517,61.301C10.404,59.732 22.488,57.908 33.95,60.714C27.323,54.442 17.964,53.332 12.289,53.319C8.247,53.309 4.958,50.018 4.958,45.982Z" style="fill:rgb(207,58,23);fill-rule:nonzero;"/>
        <path d="M18.329,23.644C18.329,23.573 18.365,23.537 18.436,23.537L23.771,23.537C23.842,23.537 23.878,23.573 23.878,23.644L23.878,24.233C23.878,24.29 23.85,24.319 23.792,24.319L22.303,24.501C22.246,24.501 22.218,24.537 22.218,24.608L22.218,30.553L27.52,24.587C27.549,24.558 27.556,24.523 27.542,24.48C27.527,24.437 27.499,24.415 27.456,24.415L26.556,24.319C26.485,24.319 26.449,24.283 26.449,24.212L26.449,23.644C26.449,23.573 26.485,23.537 26.556,23.537L30.991,23.537C31.062,23.537 31.098,23.573 31.098,23.644L31.098,24.212C31.098,24.283 31.062,24.319 30.991,24.319L28.945,24.523C28.916,24.523 28.894,24.529 28.881,24.544L24.36,29.632C24.339,29.646 24.324,29.668 24.317,29.696L24.339,29.76L29.866,37.269C29.895,37.298 29.916,37.312 29.93,37.312L31.933,37.505C32.005,37.505 32.04,37.544 32.04,37.623L32.04,38.191C32.04,38.262 32.005,38.298 31.933,38.298L26.449,38.298C26.378,38.298 26.342,38.262 26.342,38.191L26.342,37.623C26.342,37.544 26.378,37.505 26.449,37.505L27.413,37.419C27.456,37.419 27.484,37.401 27.499,37.366C27.513,37.33 27.513,37.291 27.499,37.248L23.043,31.26C23.014,31.224 22.985,31.206 22.957,31.206C22.928,31.214 22.907,31.231 22.892,31.26L22.239,31.999C22.225,32.02 22.218,32.042 22.218,32.063L22.218,37.248C22.218,37.319 22.246,37.355 22.303,37.355L23.728,37.505C23.785,37.505 23.814,37.533 23.814,37.591L23.814,38.191C23.814,38.262 23.778,38.298 23.706,38.298L18.436,38.298C18.365,38.298 18.329,38.262 18.329,38.191L18.329,37.623C18.329,37.544 18.365,37.505 18.436,37.505L20.193,37.334C20.265,37.334 20.3,37.298 20.3,37.226L20.3,24.608C20.3,24.537 20.265,24.501 20.193,24.501L18.436,24.319C18.365,24.319 18.329,24.283 18.329,24.212L18.329,23.644Z" style="fill:white;fill-rule:nonzero;"/>
        <path d="M36.855,29.879C36.855,29.95 36.891,29.986 36.963,29.986L37.637,29.986C38.83,29.986 39.73,29.803 40.337,29.439C41.143,28.954 41.547,28.193 41.547,27.158C41.547,26.301 41.258,25.654 40.679,25.219C40.144,24.819 39.462,24.605 38.634,24.576L37.798,24.544L36.963,24.544C36.891,24.544 36.855,24.58 36.855,24.651L36.855,29.879ZM36.855,37.183C36.855,37.255 36.891,37.291 36.963,37.291L38.344,37.291C40.972,37.291 42.286,36.302 42.286,34.324C42.286,31.989 40.833,30.821 37.927,30.821L36.963,30.821C36.891,30.821 36.855,30.856 36.855,30.928L36.855,37.183ZM38.077,23.537C39.883,23.537 41.165,23.74 41.922,24.148C42.443,24.426 42.829,24.765 43.079,25.165C43.386,25.665 43.539,26.247 43.539,26.911C43.539,28.454 42.647,29.543 40.861,30.178C41.883,30.4 42.725,30.85 43.389,31.528C44.118,32.263 44.482,33.131 44.482,34.131C44.482,34.938 44.25,35.684 43.786,36.369C42.915,37.655 41.179,38.298 38.58,38.298L32.967,38.298C32.896,38.298 32.86,38.262 32.86,38.191L32.86,37.623C32.86,37.544 32.896,37.505 32.967,37.505L34.831,37.334C34.902,37.334 34.938,37.298 34.938,37.226L34.938,24.608C34.938,24.537 34.902,24.501 34.831,24.501L32.967,24.319C32.896,24.319 32.86,24.283 32.86,24.212L32.86,23.644C32.86,23.573 32.896,23.537 32.967,23.537L38.077,23.537Z" style="fill:white;fill-rule:nonzero;"/>
        <path d="M50.205,24.544C50.134,24.544 50.098,24.58 50.098,24.651L50.098,30.885C50.098,30.957 50.134,30.992 50.205,30.992L51.48,30.992C54.065,30.992 55.357,29.86 55.357,27.597C55.357,26.497 54.954,25.697 54.147,25.197C53.447,24.762 52.49,24.544 51.276,24.544L50.205,24.544ZM51.651,23.537C53.051,23.537 54.108,23.658 54.822,23.901C56.629,24.515 57.532,25.79 57.532,27.725C57.532,29.018 56.954,30.075 55.797,30.896C54.768,31.617 53.576,31.992 52.219,32.02L50.098,31.645L50.098,37.226C50.098,37.291 50.134,37.327 50.205,37.334L52.283,37.505C52.362,37.512 52.401,37.551 52.401,37.623L52.401,38.191C52.401,38.262 52.362,38.298 52.283,38.298L46.167,38.298C46.096,38.298 46.06,38.262 46.06,38.191L46.06,37.623C46.06,37.544 46.096,37.505 46.167,37.505L48.031,37.334C48.103,37.334 48.138,37.298 48.138,37.226L48.138,24.608C48.138,24.537 48.103,24.501 48.031,24.501L46.167,24.319C46.096,24.319 46.06,24.283 46.06,24.212L46.06,23.644C46.06,23.573 46.096,23.537 46.167,23.537L51.651,23.537Z" style="fill:white;fill-rule:nonzero;"/>
    </g>
</svg>
