<svg width="242" height="62" viewBox="0 0 242 62" fill="none" xmlns="http://www.w3.org/2000/svg">
<path d="M90.8629 57.556L90.6209 57.4942L90.5715 57.4323V56.6631C91.3075 56.1173 92.0227 55.8444 92.7172 55.8444C93.1927 55.8444 93.5875 55.9335 93.902 56.1113C94.2159 56.2891 94.4436 56.5112 94.5839 56.778C94.7247 57.0444 94.7949 57.3556 94.7949 57.7112L94.764 58.9578V60.8061C94.764 61.0582 94.7815 61.211 94.8166 61.2651C94.8517 61.3186 94.8923 61.3547 94.9376 61.3736C94.9833 61.392 95.0678 61.4078 95.192 61.4198L95.5452 61.4511L95.5951 61.5066V61.755L95.5452 61.8044C95.2437 61.7794 94.9625 61.7674 94.7021 61.7674C94.4537 61.7674 94.1564 61.7794 93.8087 61.8044L93.7159 61.7176L93.7408 60.7193L92.3884 61.7734C92.1612 61.8685 91.9133 61.9161 91.6446 61.9161C91.3135 61.9161 91.0295 61.8561 90.7918 61.736C90.554 61.6164 90.372 61.4488 90.246 61.2337C90.1199 61.019 90.0567 60.7586 90.0567 60.4524C90.0567 59.8448 90.2469 59.3702 90.6274 59.0289C91.0079 58.6882 92.0453 58.3978 93.7408 58.1577C93.7408 57.5459 93.6041 57.1146 93.3313 56.8648C93.0584 56.6146 92.6927 56.4895 92.2337 56.4895C91.9936 56.4895 91.7757 56.5245 91.5795 56.5947C91.3828 56.6654 91.2701 56.7222 91.2415 56.7656C91.2124 56.809 91.1007 57.062 90.9063 57.5251L90.8629 57.556ZM93.7408 58.5363C92.5828 58.7302 91.8616 58.9394 91.5762 59.1624C91.2909 59.3859 91.1482 59.7308 91.1482 60.198C91.1482 60.8431 91.4687 61.1658 92.1095 61.1658C92.6594 61.1658 93.2033 60.8472 93.7408 60.2105V58.5363Z" fill="#595959"/>
<path d="M98.2246 52.5753L98.3423 52.6502C98.2966 53.1253 98.274 54.0783 98.274 55.5092V59.3978C98.274 59.4888 98.2823 59.7811 98.2989 60.2751C98.3155 60.7691 98.3331 61.0577 98.3515 61.1404C98.37 61.223 98.3982 61.283 98.4351 61.3204C98.4725 61.3574 98.5178 61.3814 98.5718 61.3916C98.6253 61.4017 98.8488 61.4192 99.2413 61.4442L99.2972 61.4941V61.7545L99.2477 61.8103C98.7311 61.7771 98.2324 61.7605 97.7531 61.7605C97.2776 61.7605 96.7812 61.7771 96.2645 61.8103L96.2087 61.7545V61.4941L96.2645 61.4442C96.6658 61.4192 96.892 61.4008 96.9437 61.3883C96.9954 61.3758 97.0407 61.35 97.0799 61.3107C97.1192 61.2715 97.1464 61.2115 97.1607 61.1311C97.1751 61.0503 97.1917 60.7839 97.2101 60.331C97.2291 59.8785 97.2383 59.5363 97.2383 59.3045V56.0919L97.2134 54.7773C97.2009 54.3184 97.1875 53.9998 97.1732 53.822C97.1584 53.6442 97.1391 53.539 97.1141 53.5057C97.0896 53.4729 97.0458 53.448 96.9839 53.4314C96.922 53.4148 96.6718 53.4065 96.2336 53.4065L96.1777 53.3506V53.0902L96.2271 53.0343C97.0171 52.9434 97.683 52.7905 98.2246 52.5753Z" fill="#595959"/>
<path d="M99.8864 56.8891V56.7279L99.9298 56.6656C100.319 56.5211 100.633 56.3867 100.873 56.2625C100.873 55.1835 100.86 54.5551 100.835 54.3773C101.261 54.2286 101.61 54.0693 101.883 53.8999L102.032 54.0236C101.991 54.2845 101.942 55.0408 101.883 56.2939C102.09 56.2981 102.314 56.2999 102.553 56.2999C103.041 56.2999 103.39 56.2875 103.601 56.2625L103.645 56.3059L103.527 56.8272L103.477 56.8831C103.267 56.8789 103.033 56.8766 102.777 56.8766C102.545 56.8766 102.247 56.8789 101.883 56.8831L101.846 59.4069C101.846 59.99 101.86 60.3714 101.887 60.5515C101.913 60.7311 101.988 60.8719 102.11 60.973C102.232 61.0741 102.413 61.1249 102.653 61.1249C102.93 61.1249 103.186 61.0525 103.422 60.9079L103.57 61.1314C103.471 61.2016 103.233 61.4084 102.857 61.7515C102.642 61.8508 102.423 61.9002 102.2 61.9002C101.27 61.9002 100.804 61.4495 100.804 60.5483C100.804 60.2177 100.813 59.9365 100.829 59.7047C100.833 59.6345 100.835 59.562 100.835 59.4877V56.914H100.581C100.395 56.914 100.182 56.9223 99.9423 56.9385L99.8864 56.8891Z" fill="#595959"/>
<path d="M109.223 60.8474L109.025 61.2939C108.595 61.571 108.211 61.7506 107.875 61.8332C107.538 61.9159 107.237 61.9574 106.972 61.9574C106.476 61.9574 106.006 61.8605 105.561 61.6661C105.117 61.4717 104.755 61.1429 104.476 60.6798C104.197 60.2167 104.057 59.6585 104.057 59.0052C104.057 58.5711 104.111 58.1796 104.218 57.8301C104.326 57.4805 104.439 57.221 104.556 57.0516C104.675 56.8821 104.874 56.6942 105.155 56.4874C105.436 56.2805 105.734 56.1152 106.048 55.991C106.362 55.8673 106.702 55.8049 107.065 55.8049C107.561 55.8049 107.999 55.9217 108.377 56.1554C108.755 56.389 109.021 56.6877 109.174 57.0516C109.327 57.4154 109.404 57.8024 109.404 58.2114C109.404 58.3398 109.397 58.4635 109.385 58.5836L109.316 58.6519C109.036 58.7138 108.657 58.7554 108.181 58.7757C107.706 58.7964 107.392 58.8071 107.239 58.8071H105.248C105.256 59.6626 105.472 60.2934 105.893 60.6983C106.315 61.1037 106.832 61.3064 107.444 61.3064C107.733 61.3064 108.011 61.2565 108.278 61.1573C108.544 61.058 108.826 60.9195 109.124 60.7417L109.223 60.8474ZM105.248 58.3107C105.322 58.3232 105.609 58.3375 106.107 58.3541C106.605 58.3707 106.974 58.379 107.214 58.379C107.789 58.379 108.138 58.3684 108.262 58.3481C108.266 58.2488 108.268 58.1722 108.268 58.1186C108.268 57.4778 108.138 57.0013 107.878 56.6891C107.617 56.3766 107.262 56.2205 106.811 56.2205C106.319 56.2205 105.936 56.3964 105.66 56.7478C105.386 57.0991 105.248 57.6204 105.248 58.3107Z" fill="#595959"/>
<path d="M112.203 55.8508L112.32 55.9316C112.295 56.1712 112.277 56.5974 112.264 57.2092L112.73 56.62C112.883 56.4256 113.018 56.276 113.136 56.1703C113.254 56.065 113.391 55.9833 113.548 55.9256C113.705 55.8674 113.867 55.8388 114.032 55.8388C114.214 55.8388 114.386 55.8757 114.547 55.9501L114.59 56.0369C114.524 56.5868 114.487 57.0707 114.478 57.4885H114.2C114.034 57.1081 113.767 56.9178 113.399 56.9178C113.143 56.9178 112.92 56.9996 112.73 57.1625C112.54 57.326 112.412 57.5305 112.348 57.7766C112.284 58.0227 112.252 58.3339 112.252 58.7102V59.3987C112.252 59.5224 112.26 59.8262 112.277 60.3101C112.294 60.794 112.311 61.0729 112.33 61.1472C112.348 61.222 112.377 61.2765 112.416 61.3116C112.456 61.3467 112.507 61.3707 112.571 61.3832C112.636 61.3956 112.93 61.416 113.455 61.4451L113.511 61.4949V61.7553L113.455 61.8112C112.905 61.778 112.33 61.7613 111.731 61.7613C111.256 61.7613 110.76 61.778 110.243 61.8112L110.187 61.7553V61.4949L110.243 61.4451C110.644 61.4201 110.87 61.4016 110.922 61.3892C110.973 61.3767 111.019 61.3509 111.058 61.3116C111.098 61.2724 111.124 61.2123 111.139 61.132C111.154 61.0512 111.17 60.7848 111.189 60.3318C111.207 59.8793 111.216 59.5372 111.216 59.3054V58.0837C111.216 57.9184 111.208 57.6931 111.191 57.4077C111.175 57.1224 111.161 56.9465 111.151 56.8804C111.141 56.8144 111.109 56.7659 111.055 56.735C111.001 56.7036 110.894 56.6883 110.732 56.6883L110.212 56.6819L110.156 56.6325V56.3656L110.206 56.3162C110.995 56.2211 111.661 56.0659 112.203 55.8508Z" fill="#595959"/>
<path d="M116.959 55.8508L117.077 55.9316C117.052 56.2086 117.036 56.5725 117.027 57.0231C117.358 56.7502 117.672 56.4732 117.97 56.192C118.057 56.1135 118.138 56.0558 118.215 56.0184C118.292 55.9815 118.419 55.9417 118.596 55.9006C118.774 55.8591 118.956 55.8388 119.142 55.8388C119.457 55.8388 119.761 55.9025 120.057 56.0309C120.353 56.1592 120.576 56.3111 120.727 56.4866C120.878 56.6625 120.982 56.8703 121.04 57.1099C121.098 57.35 121.127 57.6455 121.127 57.9969V59.0884C121.127 59.1586 121.137 59.6734 121.158 60.6329C121.166 61.0253 121.21 61.259 121.288 61.3333C121.367 61.4081 121.623 61.4451 122.057 61.4451L122.107 61.4949V61.7613L122.057 61.8112C121.532 61.778 121.177 61.7613 120.99 61.7613C120.883 61.7613 120.581 61.778 120.085 61.8112L120.011 61.7429C120.064 61.2054 120.091 60.5045 120.091 59.6402V58.828C120.091 58.3399 120.08 57.9886 120.057 57.7734C120.034 57.5587 119.965 57.3634 119.849 57.1875C119.734 57.0116 119.578 56.8754 119.384 56.7784C119.19 56.681 118.958 56.6325 118.69 56.6325C118.474 56.6325 118.291 56.6542 118.137 56.6976C117.985 56.741 117.813 56.8296 117.623 56.9645C117.432 57.0988 117.292 57.2249 117.201 57.3426C117.11 57.4604 117.055 57.5698 117.037 57.6714C117.018 57.7725 117.009 57.9886 117.009 58.3192V59.3987C117.009 59.4896 117.017 59.7819 117.033 60.276C117.05 60.77 117.068 61.0586 117.087 61.1412C117.105 61.2239 117.133 61.2839 117.17 61.3213C117.207 61.3582 117.253 61.3823 117.306 61.3924C117.36 61.4026 117.583 61.4201 117.976 61.4451L118.032 61.4949V61.7553L117.982 61.8112C117.466 61.778 116.967 61.7613 116.488 61.7613C116.013 61.7613 115.516 61.778 115 61.8112L114.944 61.7553V61.4949L115 61.4451C115.4 61.4201 115.627 61.4016 115.678 61.3892C115.73 61.3767 115.776 61.3509 115.815 61.3116C115.854 61.2724 115.881 61.2123 115.896 61.132C115.91 61.0512 115.927 60.7848 115.945 60.3318C115.964 59.8793 115.973 59.5372 115.973 59.3054V58.0837C115.973 57.9184 115.965 57.6931 115.948 57.4077C115.932 57.1224 115.918 56.9465 115.908 56.8804C115.898 56.8144 115.866 56.7659 115.812 56.735C115.758 56.7036 115.651 56.6883 115.489 56.6883L114.968 56.6819L114.913 56.6325V56.3656L114.962 56.3162C115.752 56.2211 116.418 56.0659 116.959 55.8508Z" fill="#595959"/>
<path d="M123.553 57.556L123.311 57.4942L123.262 57.4323V56.6631C123.998 56.1173 124.713 55.8444 125.408 55.8444C125.883 55.8444 126.278 55.9335 126.592 56.1113C126.906 56.2891 127.134 56.5112 127.274 56.778C127.415 57.0444 127.485 57.3556 127.485 57.7112L127.454 58.9578V60.8061C127.454 61.0582 127.472 61.211 127.507 61.2651C127.542 61.3186 127.582 61.3547 127.628 61.3736C127.673 61.392 127.758 61.4078 127.882 61.4198L128.236 61.4511L128.286 61.5066V61.755L128.236 61.8044C127.934 61.7794 127.653 61.7674 127.392 61.7674C127.144 61.7674 126.846 61.7794 126.499 61.8044L126.406 61.7176L126.431 60.7193L125.079 61.7734C124.852 61.8685 124.603 61.9161 124.335 61.9161C124.004 61.9161 123.72 61.8561 123.482 61.736C123.244 61.6164 123.063 61.4488 122.936 61.2337C122.81 61.019 122.747 60.7586 122.747 60.4524C122.747 59.8448 122.937 59.3702 123.318 59.0289C123.698 58.6882 124.736 58.3978 126.431 58.1577C126.431 57.5459 126.295 57.1146 126.022 56.8648C125.749 56.6146 125.383 56.4895 124.924 56.4895C124.684 56.4895 124.466 56.5245 124.269 56.5947C124.073 56.6654 123.961 56.7222 123.932 56.7656C123.903 56.809 123.791 57.062 123.597 57.5251L123.553 57.556ZM126.431 58.5363C125.273 58.7302 124.552 58.9394 124.267 59.1624C123.981 59.3859 123.839 59.7308 123.839 60.198C123.839 60.8431 124.159 61.1658 124.8 61.1658C125.35 61.1658 125.893 60.8472 126.431 60.2105V58.5363Z" fill="#595959"/>
<path d="M128.868 56.8891V56.7279L128.912 56.6656C129.3 56.5211 129.614 56.3867 129.854 56.2625C129.854 55.1835 129.842 54.5551 129.817 54.3773C130.243 54.2286 130.592 54.0693 130.865 53.8999L131.014 54.0236C130.973 54.2845 130.923 55.0408 130.865 56.2939C131.072 56.2981 131.295 56.2999 131.535 56.2999C132.023 56.2999 132.372 56.2875 132.583 56.2625L132.626 56.3059L132.508 56.8272L132.459 56.8831C132.248 56.8789 132.014 56.8766 131.758 56.8766C131.527 56.8766 131.229 56.8789 130.865 56.8831L130.828 59.4069C130.828 59.99 130.841 60.3714 130.868 60.5515C130.895 60.7311 130.97 60.8719 131.091 60.973C131.213 61.0741 131.394 61.1249 131.634 61.1249C131.911 61.1249 132.167 61.0525 132.403 60.9079L132.552 61.1314C132.453 61.2016 132.215 61.4084 131.839 61.7515C131.624 61.8508 131.404 61.9002 131.181 61.9002C130.251 61.9002 129.786 61.4495 129.786 60.5483C129.786 60.2177 129.794 59.9365 129.811 59.7047C129.815 59.6345 129.817 59.562 129.817 59.4877V56.914H129.563C129.377 56.914 129.164 56.9223 128.924 56.9385L128.868 56.8891Z" fill="#595959"/>
<path d="M134.514 53.077C134.708 53.077 134.873 53.1453 135.009 53.282C135.146 53.4182 135.214 53.5835 135.214 53.7779C135.214 53.9681 135.146 54.1316 135.009 54.2678C134.873 54.4045 134.708 54.4728 134.514 54.4728C134.323 54.4728 134.159 54.4054 134.02 54.271C133.882 54.1367 133.813 53.9723 133.813 53.7779C133.813 53.5835 133.882 53.4182 134.02 53.282C134.159 53.1453 134.323 53.077 134.514 53.077ZM135.041 55.8492L135.159 55.93C135.113 56.4716 135.09 57.16 135.09 57.9953V59.3971C135.09 59.488 135.099 59.7803 135.115 60.2744C135.132 60.7684 135.149 61.057 135.168 61.1396C135.186 61.2223 135.214 61.2823 135.251 61.3197C135.289 61.3566 135.334 61.3807 135.388 61.3908C135.442 61.401 135.665 61.4185 136.058 61.4434L136.113 61.4933V61.7537L136.064 61.8096C135.547 61.7764 135.049 61.7597 134.569 61.7597C134.094 61.7597 133.597 61.7764 133.081 61.8096L133.025 61.7537V61.4933L133.081 61.4434C133.482 61.4185 133.708 61.4 133.76 61.3876C133.812 61.3751 133.857 61.3493 133.896 61.31C133.935 61.2708 133.963 61.2107 133.977 61.1304C133.991 61.0496 134.008 60.7832 134.026 60.3302C134.045 59.8777 134.055 59.5356 134.055 59.3038V58.0821C134.055 57.9168 134.046 57.6915 134.03 57.4061C134.013 57.1208 134 56.9449 133.989 56.8788C133.979 56.8128 133.947 56.7643 133.893 56.7334C133.839 56.702 133.732 56.6868 133.571 56.6868L133.05 56.6803L132.994 56.6309V56.364L133.043 56.3146C133.833 56.2195 134.499 56.0644 135.041 55.8492Z" fill="#595959"/>
<path d="M139.589 61.8713L139.205 60.8975L138.746 59.8369L137.475 56.8787C137.392 56.6843 137.318 56.5564 137.254 56.494C137.19 56.4322 137.125 56.3948 137.059 56.3828C136.993 56.3703 136.86 56.3597 136.662 56.3514L136.612 56.302V56.0351L136.668 55.9797C137.247 56.0083 137.706 56.0231 138.045 56.0231C138.524 56.0231 139.007 56.0083 139.49 55.9797L139.54 56.0291V56.302L139.49 56.3514C139.06 56.3638 138.81 56.3938 138.74 56.4414C138.669 56.489 138.634 56.5499 138.634 56.6243C138.634 56.7485 138.717 57.0153 138.882 57.4244L139.639 59.3101L140.234 60.7179L140.854 59.3101L141.369 58.0325C141.568 57.5486 141.696 57.2056 141.754 57.0029C141.812 56.8002 141.841 56.6658 141.841 56.5998C141.841 56.5213 141.795 56.464 141.704 56.4289C141.613 56.3939 141.384 56.368 141.016 56.3514L140.966 56.302V56.0351L141.022 55.9797C141.534 56.0083 141.919 56.0231 142.175 56.0231C142.391 56.0231 142.758 56.0083 143.279 55.9797L143.335 56.0351V56.302L143.286 56.3514C143.042 56.3722 142.879 56.4072 142.799 56.4571C142.718 56.5065 142.64 56.6026 142.563 56.7452C142.487 56.8879 142.266 57.3316 141.902 58.0759L141.307 59.347C141.208 59.5622 140.85 60.4035 140.234 61.8713H139.589Z" fill="#595959"/>
<path d="M145.715 55.8508L145.834 55.9316C145.809 56.2086 145.792 56.5725 145.784 57.0231C146.115 56.7502 146.429 56.4732 146.727 56.192C146.813 56.1135 146.895 56.0558 146.971 56.0184C147.048 55.9815 147.175 55.9417 147.353 55.9006C147.531 55.8591 147.713 55.8388 147.899 55.8388C148.213 55.8388 148.518 55.9025 148.814 56.0309C149.109 56.1592 149.333 56.3111 149.483 56.4866C149.634 56.6625 149.739 56.8703 149.797 57.1099C149.854 57.35 149.883 57.6455 149.883 57.9969V59.0884C149.883 59.1586 149.894 59.6734 149.914 60.6329C149.923 61.0253 149.966 61.259 150.045 61.3333C150.123 61.4081 150.379 61.4451 150.814 61.4451L150.863 61.4949V61.7613L150.814 61.8112C150.288 61.778 149.933 61.7613 149.747 61.7613C149.639 61.7613 149.338 61.778 148.841 61.8112L148.767 61.7429C148.821 61.2054 148.848 60.5045 148.848 59.6402V58.828C148.848 58.3399 148.836 57.9886 148.814 57.7734C148.791 57.5587 148.722 57.3634 148.606 57.1875C148.49 57.0116 148.335 56.8754 148.14 56.7784C147.947 56.681 147.715 56.6325 147.446 56.6325C147.231 56.6325 147.047 56.6542 146.894 56.6976C146.741 56.741 146.57 56.8296 146.379 56.9645C146.189 57.0988 146.048 57.2249 145.957 57.3426C145.866 57.4604 145.812 57.5698 145.793 57.6714C145.775 57.7725 145.765 57.9886 145.765 58.3192V59.3987C145.765 59.4896 145.774 59.7819 145.79 60.276C145.806 60.77 145.824 61.0586 145.843 61.1412C145.861 61.2239 145.89 61.2839 145.927 61.3213C145.964 61.3582 146.009 61.3823 146.063 61.3924C146.117 61.4026 146.34 61.4201 146.733 61.4451L146.789 61.4949V61.7553L146.739 61.8112C146.222 61.778 145.724 61.7613 145.245 61.7613C144.769 61.7613 144.273 61.778 143.756 61.8112L143.7 61.7553V61.4949L143.756 61.4451C144.157 61.4201 144.383 61.4016 144.435 61.3892C144.487 61.3767 144.532 61.3509 144.571 61.3116C144.611 61.2724 144.638 61.2123 144.652 61.132C144.666 61.0512 144.683 60.7848 144.702 60.3318C144.72 59.8793 144.73 59.5372 144.73 59.3054V58.0837C144.73 57.9184 144.721 57.6931 144.705 57.4077C144.688 57.1224 144.675 56.9465 144.665 56.8804C144.654 56.8144 144.622 56.7659 144.569 56.735C144.515 56.7036 144.407 56.6883 144.246 56.6883L143.725 56.6819L143.669 56.6325V56.3656L143.719 56.3162C144.509 56.2211 145.174 56.0659 145.715 55.8508Z" fill="#595959"/>
<path d="M153.302 55.8465L153.42 55.9273C153.375 56.4689 153.352 57.1574 153.352 57.9926V59.3944C153.352 59.4854 153.36 59.7777 153.377 60.2717C153.393 60.7658 153.411 61.0543 153.429 61.137C153.448 61.2196 153.476 61.2797 153.513 61.3171C153.55 61.354 153.596 61.378 153.65 61.3882C153.703 61.3983 153.927 61.4159 154.32 61.4408L154.375 61.4907V61.7511L154.326 61.8069C153.809 61.7737 153.311 61.7571 152.831 61.7571C152.355 61.7571 151.859 61.7737 151.342 61.8069L151.286 61.7511V61.4907L151.342 61.4408C151.744 61.4159 151.97 61.3974 152.022 61.3849C152.073 61.3725 152.119 61.3466 152.158 61.3074C152.197 61.2681 152.224 61.2081 152.239 61.1277C152.253 61.0469 152.27 60.7805 152.288 60.3276C152.307 59.8751 152.316 59.5329 152.316 59.3012V58.0794C152.316 57.9141 152.308 57.6888 152.291 57.4035C152.275 57.1181 152.261 56.9422 152.251 56.8762C152.241 56.8102 152.209 56.7617 152.155 56.7307C152.101 56.6993 151.994 56.6841 151.832 56.6841L151.311 56.6776L151.256 56.6282V56.3613L151.305 56.3119C152.095 56.2168 152.761 56.0617 153.302 55.8465ZM154.4 52.6588L152.577 54.9785L152.496 55.0034L152.316 54.9102L152.298 54.8298L153.247 52.6652L154.214 52.4852L154.295 52.5041L154.4 52.6588Z" fill="#595959"/>
<path d="M159.651 53.077C159.846 53.077 160.011 53.1453 160.147 53.282C160.284 53.4182 160.352 53.5835 160.352 53.7779C160.352 53.9681 160.284 54.1316 160.147 54.2678C160.011 54.4045 159.846 54.4728 159.651 54.4728C159.461 54.4728 159.297 54.4054 159.158 54.271C159.02 54.1367 158.95 53.9723 158.95 53.7779C158.95 53.5835 159.02 53.4182 159.158 53.282C159.297 53.1453 159.461 53.077 159.651 53.077ZM160.179 55.8492L160.296 55.93C160.251 56.4716 160.228 57.16 160.228 57.9953V59.3971C160.228 59.488 160.236 59.7803 160.253 60.2744C160.27 60.7684 160.287 61.057 160.306 61.1396C160.324 61.2223 160.352 61.2823 160.389 61.3197C160.427 61.3566 160.472 61.3807 160.526 61.3908C160.579 61.401 160.803 61.4185 161.195 61.4434L161.251 61.4933V61.7537L161.202 61.8096C160.685 61.7764 160.187 61.7597 159.707 61.7597C159.232 61.7597 158.735 61.7764 158.219 61.8096L158.163 61.7537V61.4933L158.219 61.4434C158.62 61.4185 158.846 61.4 158.898 61.3876C158.95 61.3751 158.995 61.3493 159.034 61.31C159.073 61.2708 159.101 61.2107 159.115 61.1304C159.129 61.0496 159.146 60.7832 159.164 60.3302C159.183 59.8777 159.192 59.5356 159.192 59.3038V58.0821C159.192 57.9168 159.184 57.6915 159.167 57.4061C159.151 57.1208 159.137 56.9449 159.127 56.8788C159.117 56.8128 159.085 56.7643 159.031 56.7334C158.977 56.702 158.87 56.6868 158.709 56.6868L158.188 56.6803L158.132 56.6309V56.364L158.181 56.3146C158.971 56.2195 159.637 56.0644 160.179 55.8492Z" fill="#595959"/>
<path d="M163.684 55.8508L163.802 55.9316C163.777 56.2086 163.761 56.5725 163.752 57.0231C164.083 56.7502 164.397 56.4732 164.695 56.192C164.782 56.1135 164.864 56.0558 164.94 56.0184C165.017 55.9815 165.144 55.9417 165.322 55.9006C165.5 55.8591 165.681 55.8388 165.868 55.8388C166.181 55.8388 166.487 55.9025 166.782 56.0309C167.078 56.1592 167.301 56.3111 167.452 56.4866C167.603 56.6625 167.707 56.8703 167.765 57.1099C167.823 57.35 167.852 57.6455 167.852 57.9969V59.0884C167.852 59.1586 167.862 59.6734 167.883 60.6329C167.891 61.0253 167.935 61.259 168.013 61.3333C168.092 61.4081 168.348 61.4451 168.782 61.4451L168.832 61.4949V61.7613L168.782 61.8112C168.257 61.778 167.901 61.7613 167.715 61.7613C167.608 61.7613 167.306 61.778 166.81 61.8112L166.736 61.7429C166.79 61.2054 166.816 60.5045 166.816 59.6402V58.828C166.816 58.3399 166.805 57.9886 166.782 57.7734C166.76 57.5587 166.69 57.3634 166.574 57.1875C166.459 57.0116 166.303 56.8754 166.109 56.7784C165.915 56.681 165.683 56.6325 165.415 56.6325C165.2 56.6325 165.016 56.6542 164.863 56.6976C164.71 56.741 164.538 56.8296 164.348 56.9645C164.158 57.0988 164.017 57.2249 163.926 57.3426C163.835 57.4604 163.781 57.5698 163.762 57.6714C163.743 57.7725 163.734 57.9886 163.734 58.3192V59.3987C163.734 59.4896 163.742 59.7819 163.759 60.276C163.775 60.77 163.793 61.0586 163.811 61.1412C163.83 61.2239 163.858 61.2839 163.895 61.3213C163.932 61.3582 163.978 61.3823 164.032 61.3924C164.085 61.4026 164.309 61.4201 164.701 61.4451L164.757 61.4949V61.7553L164.708 61.8112C164.191 61.778 163.693 61.7613 163.213 61.7613C162.737 61.7613 162.241 61.778 161.724 61.8112L161.669 61.7553V61.4949L161.724 61.4451C162.126 61.4201 162.352 61.4016 162.404 61.3892C162.455 61.3767 162.501 61.3509 162.54 61.3116C162.579 61.2724 162.606 61.2123 162.621 61.132C162.635 61.0512 162.652 60.7848 162.67 60.3318C162.689 59.8793 162.698 59.5372 162.698 59.3054V58.0837C162.698 57.9184 162.69 57.6931 162.673 57.4077C162.657 57.1224 162.643 56.9465 162.633 56.8804C162.623 56.8144 162.591 56.7659 162.537 56.735C162.483 56.7036 162.375 56.6883 162.214 56.6883L161.694 56.6819L161.638 56.6325V56.3656L161.688 56.3162C162.477 56.2211 163.143 56.0659 163.684 55.8508Z" fill="#595959"/>
<path d="M172.111 61.8713L171.726 60.8975L171.267 59.8369L169.996 56.8787C169.913 56.6843 169.84 56.5564 169.776 56.494C169.712 56.4322 169.646 56.3948 169.58 56.3828C169.514 56.3703 169.382 56.3597 169.183 56.3514L169.134 56.302V56.0351L169.19 55.9797C169.768 56.0083 170.227 56.0231 170.567 56.0231C171.046 56.0231 171.528 56.0083 172.011 55.9797L172.061 56.0291V56.302L172.011 56.3514C171.582 56.3638 171.331 56.3938 171.261 56.4414C171.191 56.489 171.156 56.5499 171.156 56.6243C171.156 56.7485 171.238 57.0153 171.404 57.4244L172.161 59.3101L172.755 60.7179L173.376 59.3101L173.891 58.0325C174.089 57.5486 174.217 57.2056 174.275 57.0029C174.333 56.8002 174.362 56.6658 174.362 56.5998C174.362 56.5213 174.317 56.464 174.226 56.4289C174.134 56.3939 173.905 56.368 173.537 56.3514L173.488 56.302V56.0351L173.543 55.9797C174.056 56.0083 174.441 56.0231 174.697 56.0231C174.912 56.0231 175.28 56.0083 175.801 55.9797L175.856 56.0351V56.302L175.807 56.3514C175.563 56.3722 175.4 56.4072 175.32 56.4571C175.239 56.5065 175.161 56.6026 175.085 56.7452C175.008 56.8879 174.787 57.3316 174.424 58.0759L173.829 59.347C173.729 59.5622 173.372 60.4035 172.755 61.8713H172.111Z" fill="#595959"/>
<path d="M181.39 60.8474L181.192 61.2939C180.762 61.571 180.378 61.7506 180.041 61.8332C179.704 61.9159 179.404 61.9574 179.139 61.9574C178.643 61.9574 178.173 61.8605 177.728 61.6661C177.284 61.4717 176.922 61.1429 176.643 60.6798C176.364 60.2167 176.224 59.6585 176.224 59.0052C176.224 58.5711 176.277 58.1796 176.386 57.8301C176.493 57.4805 176.606 57.221 176.723 57.0516C176.841 56.8821 177.041 56.6942 177.322 56.4874C177.603 56.2805 177.901 56.1152 178.215 55.991C178.529 55.8673 178.868 55.8049 179.232 55.8049C179.728 55.8049 180.166 55.9217 180.544 56.1554C180.922 56.389 181.188 56.6877 181.341 57.0516C181.494 57.4154 181.57 57.8024 181.57 58.2114C181.57 58.3398 181.564 58.4635 181.552 58.5836L181.483 58.6519C181.202 58.7138 180.824 58.7554 180.348 58.7757C179.873 58.7964 179.559 58.8071 179.406 58.8071H177.415C177.423 59.6626 177.638 60.2934 178.06 60.6983C178.482 61.1037 178.998 61.3064 179.611 61.3064C179.9 61.3064 180.178 61.2565 180.445 61.1573C180.711 61.058 180.994 60.9195 181.291 60.7417L181.39 60.8474ZM177.415 58.3107C177.489 58.3232 177.776 58.3375 178.274 58.3541C178.772 58.3707 179.141 58.379 179.381 58.379C179.956 58.379 180.305 58.3684 180.429 58.3481C180.433 58.2488 180.435 58.1722 180.435 58.1186C180.435 57.4778 180.305 57.0013 180.045 56.6891C179.784 56.3766 179.428 56.2205 178.978 56.2205C178.486 56.2205 178.102 56.3964 177.827 56.7478C177.552 57.0991 177.415 57.6204 177.415 58.3107Z" fill="#595959"/>
<path d="M182.626 59.9363H182.893L182.948 59.9921C182.956 60.3393 182.977 60.6372 183.01 60.8851C183.138 61.0795 183.359 61.2379 183.674 61.3598C183.988 61.4816 184.298 61.5426 184.604 61.5426C185.042 61.5426 185.393 61.4249 185.656 61.1889C185.918 60.9534 186.049 60.6723 186.049 60.3458C186.049 60.1681 186.002 60.0138 185.907 59.8836C185.812 59.7534 185.668 59.6458 185.475 59.5613C185.283 59.4764 184.939 59.3762 184.443 59.2603C184.017 59.161 183.72 59.0835 183.55 59.0276C183.38 58.9717 183.217 58.878 183.06 58.7455C182.903 58.6134 182.783 58.4509 182.7 58.2588C182.617 58.0663 182.576 57.8543 182.576 57.623C182.576 57.069 182.796 56.6257 183.237 56.2928C183.677 55.9599 184.226 55.7937 184.883 55.7937C185.16 55.7937 185.462 55.8315 185.789 55.9082C186.115 55.9848 186.363 56.0582 186.533 56.1284L186.589 56.2152C186.555 56.3805 186.535 56.8145 186.527 57.5178L186.471 57.5736H186.223L186.167 57.5178C186.151 57.2652 186.128 57.0888 186.099 56.9872C186.07 56.8861 185.995 56.7767 185.875 56.6585C185.756 56.5407 185.586 56.4415 185.367 56.3611C185.148 56.2803 184.916 56.2402 184.673 56.2402C184.42 56.2402 184.208 56.2771 184.037 56.3514C183.865 56.4262 183.726 56.5389 183.621 56.6899C183.516 56.8404 183.463 57.0237 183.463 57.2384C183.463 57.3959 183.495 57.5362 183.559 57.6604C183.623 57.7842 183.721 57.8844 183.854 57.961C183.986 58.0377 184.124 58.0921 184.269 58.1254L184.945 58.299C185.524 58.4398 185.939 58.5617 186.189 58.6651C186.439 58.7681 186.632 58.9246 186.769 59.1333C186.905 59.342 186.973 59.595 186.973 59.8929C186.973 60.4635 186.737 60.9534 186.266 61.363C185.795 61.7721 185.189 61.9766 184.449 61.9766C184.189 61.9766 183.865 61.948 183.479 61.8898C183.092 61.8321 182.762 61.7679 182.489 61.6977L182.458 61.6169L182.52 61.2014C182.541 61.0735 182.553 60.9442 182.557 60.814C182.562 60.6838 182.566 60.4095 182.57 59.9921L182.626 59.9363Z" fill="#595959"/>
<path d="M187.666 56.8891V56.7279L187.709 56.6656C188.098 56.5211 188.413 56.3867 188.652 56.2625C188.652 55.1835 188.64 54.5551 188.615 54.3773C189.041 54.2286 189.39 54.0693 189.663 53.8999L189.812 54.0236C189.771 54.2845 189.721 55.0408 189.663 56.2939C189.87 56.2981 190.093 56.2999 190.333 56.2999C190.821 56.2999 191.17 56.2875 191.381 56.2625L191.424 56.3059L191.307 56.8272L191.257 56.8831C191.046 56.8789 190.813 56.8766 190.556 56.8766C190.325 56.8766 190.027 56.8789 189.663 56.8831L189.626 59.4069C189.626 59.99 189.639 60.3714 189.666 60.5515C189.693 60.7311 189.767 60.8719 189.89 60.973C190.012 61.0741 190.193 61.1249 190.432 61.1249C190.709 61.1249 190.965 61.0525 191.201 60.9079L191.35 61.1314C191.251 61.2016 191.013 61.4084 190.637 61.7515C190.422 61.8508 190.203 61.9002 189.979 61.9002C189.049 61.9002 188.584 61.4495 188.584 60.5483C188.584 60.2177 188.592 59.9365 188.609 59.7047C188.613 59.6345 188.615 59.562 188.615 59.4877V56.914H188.361C188.175 56.914 187.962 56.9223 187.722 56.9385L187.666 56.8891Z" fill="#595959"/>
<path d="M193.311 53.077C193.505 53.077 193.671 53.1453 193.807 53.282C193.943 53.4182 194.012 53.5835 194.012 53.7779C194.012 53.9681 193.943 54.1316 193.807 54.2678C193.671 54.4045 193.505 54.4728 193.311 54.4728C193.121 54.4728 192.957 54.4054 192.818 54.271C192.68 54.1367 192.61 53.9723 192.61 53.7779C192.61 53.5835 192.68 53.4182 192.818 53.282C192.957 53.1453 193.121 53.077 193.311 53.077ZM193.838 55.8492L193.956 55.93C193.911 56.4716 193.888 57.16 193.888 57.9953V59.3971C193.888 59.488 193.896 59.7803 193.913 60.2744C193.929 60.7684 193.947 61.057 193.965 61.1396C193.984 61.2223 194.012 61.2823 194.049 61.3197C194.086 61.3566 194.132 61.3807 194.185 61.3908C194.239 61.401 194.462 61.4185 194.855 61.4434L194.911 61.4933V61.7537L194.861 61.8096C194.345 61.7764 193.846 61.7597 193.367 61.7597C192.892 61.7597 192.395 61.7764 191.879 61.8096L191.823 61.7537V61.4933L191.879 61.4434C192.279 61.4185 192.506 61.4 192.557 61.3876C192.609 61.3751 192.655 61.3493 192.694 61.31C192.733 61.2708 192.76 61.2107 192.775 61.1304C192.789 61.0496 192.806 60.7832 192.824 60.3302C192.843 59.8777 192.852 59.5356 192.852 59.3038V58.0821C192.852 57.9168 192.844 57.6915 192.827 57.4061C192.811 57.1208 192.797 56.9449 192.787 56.8788C192.777 56.8128 192.745 56.7643 192.691 56.7334C192.637 56.702 192.53 56.6868 192.369 56.6868L191.847 56.6803L191.792 56.6309V56.364L191.841 56.3146C192.631 56.2195 193.297 56.0644 193.838 55.8492Z" fill="#595959"/>
<path d="M200.602 61.0973L200.354 61.5129C199.82 61.8065 199.225 61.9533 198.568 61.9533C197.658 61.9533 196.955 61.6823 196.459 61.1407C195.963 60.5991 195.715 59.9005 195.715 59.0445C195.715 58.6557 195.757 58.3094 195.842 58.0056C195.927 57.7018 196.034 57.4506 196.164 57.2521C196.295 57.0535 196.438 56.8965 196.595 56.7806C196.753 56.6652 197.018 56.5036 197.392 56.2972C197.767 56.0904 198.049 55.9551 198.239 55.8909C198.429 55.8267 198.691 55.7949 199.027 55.7949C199.667 55.7949 200.192 55.9168 200.602 56.1605C200.523 56.6278 200.464 57.1486 200.422 57.7235L200.366 57.7729H200.112L200.056 57.7175C200.04 57.3698 200.017 57.1362 199.988 57.0166C199.959 56.8965 199.794 56.7682 199.495 56.632C199.195 56.4953 198.876 56.4274 198.537 56.4274C198.197 56.4274 197.896 56.4985 197.631 56.6412C197.366 56.7839 197.167 57.0175 197.032 57.3421C196.898 57.6667 196.831 58.0541 196.831 58.5047C196.831 58.8852 196.885 59.2564 196.992 59.6179C197.1 59.9799 197.242 60.2796 197.417 60.5174C197.593 60.7552 197.825 60.9463 198.115 61.0913C198.404 61.2358 198.727 61.3083 199.082 61.3083C199.305 61.3083 199.524 61.2792 199.737 61.2215C199.95 61.1633 200.194 61.0682 200.471 60.9362L200.602 61.0973ZM200.62 52.6316L199.002 54.8769H198.208L196.651 52.6316L196.694 52.5697H197.054L198.605 54.0952L200.155 52.5697H200.577L200.62 52.6316Z" fill="#595959"/>
<path d="M202.981 55.8508L203.098 55.9316C203.074 56.2086 203.057 56.5725 203.049 57.0231C203.38 56.7502 203.694 56.4732 203.991 56.192C204.078 56.1135 204.16 56.0558 204.237 56.0184C204.313 55.9815 204.44 55.9417 204.618 55.9006C204.796 55.8591 204.978 55.8388 205.164 55.8388C205.478 55.8388 205.783 55.9025 206.078 56.0309C206.374 56.1592 206.597 56.3111 206.748 56.4866C206.899 56.6625 207.004 56.8703 207.061 57.1099C207.12 57.35 207.148 57.6455 207.148 57.9969V59.0884C207.148 59.1586 207.159 59.6734 207.179 60.6329C207.188 61.0253 207.231 61.259 207.31 61.3333C207.388 61.4081 207.645 61.4451 208.079 61.4451L208.129 61.4949V61.7613L208.079 61.8112C207.554 61.778 207.198 61.7613 207.012 61.7613C206.904 61.7613 206.602 61.778 206.107 61.8112L206.032 61.7429C206.086 61.2054 206.113 60.5045 206.113 59.6402V58.828C206.113 58.3399 206.101 57.9886 206.078 57.7734C206.056 57.5587 205.987 57.3634 205.871 57.1875C205.755 57.0116 205.6 56.8754 205.406 56.7784C205.211 56.681 204.98 56.6325 204.711 56.6325C204.496 56.6325 204.312 56.6542 204.159 56.6976C204.006 56.741 203.834 56.8296 203.644 56.9645C203.454 57.0988 203.314 57.2249 203.223 57.3426C203.132 57.4604 203.077 57.5698 203.058 57.6714C203.04 57.7725 203.03 57.9886 203.03 58.3192V59.3987C203.03 59.4896 203.038 59.7819 203.055 60.276C203.072 60.77 203.089 61.0586 203.108 61.1412C203.127 61.2239 203.154 61.2839 203.192 61.3213C203.229 61.3582 203.274 61.3823 203.328 61.3924C203.382 61.4026 203.605 61.4201 203.998 61.4451L204.054 61.4949V61.7553L204.004 61.8112C203.487 61.778 202.989 61.7613 202.509 61.7613C202.034 61.7613 201.538 61.778 201.021 61.8112L200.965 61.7553V61.4949L201.021 61.4451C201.422 61.4201 201.648 61.4016 201.7 61.3892C201.752 61.3767 201.797 61.3509 201.837 61.3116C201.876 61.2724 201.903 61.2123 201.917 61.132C201.932 61.0512 201.948 60.7848 201.967 60.3318C201.985 59.8793 201.994 59.5372 201.994 59.3054V58.0837C201.994 57.9184 201.986 57.6931 201.97 57.4077C201.953 57.1224 201.94 56.9465 201.929 56.8804C201.919 56.8144 201.887 56.7659 201.833 56.735C201.78 56.7036 201.672 56.6883 201.511 56.6883L200.99 56.6819L200.934 56.6325V56.3656L200.984 56.3162C201.773 56.2211 202.439 56.0659 202.981 55.8508Z" fill="#595959"/>
<path d="M210.555 55.8465L210.674 55.9273C210.628 56.4689 210.605 57.1574 210.605 57.9926V59.3944C210.605 59.4854 210.614 59.7777 210.63 60.2717C210.646 60.7658 210.664 61.0543 210.683 61.137C210.701 61.2196 210.729 61.2797 210.766 61.3171C210.804 61.354 210.849 61.378 210.903 61.3882C210.957 61.3983 211.18 61.4159 211.573 61.4408L211.628 61.4907V61.7511L211.579 61.8069C211.062 61.7737 210.564 61.7571 210.084 61.7571C209.609 61.7571 209.113 61.7737 208.596 61.8069L208.54 61.7511V61.4907L208.596 61.4408C208.997 61.4159 209.223 61.3974 209.275 61.3849C209.327 61.3725 209.372 61.3466 209.411 61.3074C209.45 61.2681 209.477 61.2081 209.492 61.1277C209.506 61.0469 209.523 60.7805 209.541 60.3276C209.56 59.8751 209.57 59.5329 209.57 59.3012V58.0794C209.57 57.9141 209.561 57.6888 209.545 57.4035C209.528 57.1181 209.515 56.9422 209.505 56.8762C209.494 56.8102 209.462 56.7617 209.408 56.7307C209.354 56.6993 209.247 56.6841 209.086 56.6841L208.565 56.6776L208.509 56.6282V56.3613L208.558 56.3119C209.348 56.2168 210.014 56.0617 210.555 55.8465ZM211.653 52.6588L209.83 54.9785L209.749 55.0034L209.57 54.9102L209.551 54.8298L210.5 52.6652L211.467 52.4852L211.548 52.5041L211.653 52.6588Z" fill="#595959"/>
<path d="M218.688 61.4445L218.737 61.4944V61.7548L218.688 61.8107C218.559 61.8107 218.317 61.8024 217.962 61.7857C217.64 61.7691 217.307 61.7608 216.964 61.7608C216.517 61.7608 216.019 61.7774 215.469 61.8107L215.419 61.7548V61.4944L215.469 61.4445C215.87 61.4196 216.097 61.4011 216.151 61.3887C216.205 61.3762 216.25 61.3503 216.288 61.3111C216.325 61.2718 216.35 61.2118 216.365 61.1315C216.38 61.0507 216.396 60.7843 216.415 60.3313C216.433 59.8788 216.442 59.5367 216.442 59.3049V56.9108L215.643 56.9542L215.587 56.9048V56.7497L215.63 56.6878L216.442 56.2723V55.9001C216.442 55.4864 216.461 55.1734 216.498 54.9605C216.536 54.7477 216.605 54.551 216.706 54.3714C216.808 54.1913 216.984 53.9641 217.237 53.6889C217.489 53.4142 217.71 53.1889 217.9 53.013C218.09 52.8375 218.256 52.7198 218.396 52.6597C218.537 52.5997 218.702 52.5697 218.892 52.5697C219.049 52.5697 219.219 52.6006 219.401 52.6625L219.395 53.6797L219.252 53.7356C219.021 53.5287 218.752 53.4257 218.446 53.4257C218.231 53.4257 218.045 53.4701 217.888 53.5587C217.731 53.6478 217.623 53.7924 217.565 53.9932C217.507 54.1936 217.478 54.5251 217.478 54.9882V56.2723H218.142C218.485 56.2723 218.81 56.2598 219.116 56.2349L219.171 56.3032L219.06 56.849L219.004 56.9108C218.88 56.9067 218.799 56.9048 218.762 56.9048L217.956 56.8984H217.478V59.3982C217.478 59.5302 217.488 59.8331 217.506 60.3064C217.525 60.7801 217.542 61.0581 217.559 61.1407C217.575 61.2234 217.603 61.2834 217.642 61.3208C217.682 61.3577 217.746 61.3845 217.835 61.4011C217.924 61.4177 218.208 61.4321 218.688 61.4445Z" fill="#595959"/>
<path d="M219.77 58.9175C219.77 58.4258 219.871 57.9511 220.074 57.4945C220.277 57.0374 220.629 56.6426 221.131 56.3097C221.634 55.9768 222.23 55.8106 222.921 55.8106C223.789 55.8106 224.496 56.0844 225.042 56.6324C225.588 57.1801 225.86 57.8842 225.86 58.7439C225.86 59.6909 225.547 60.4703 224.921 61.0821C224.295 61.6939 223.539 62 222.654 62C222.075 62 221.559 61.8439 221.104 61.5318C220.649 61.2197 220.313 60.8383 220.096 60.3877C219.879 59.937 219.77 59.4471 219.77 58.9175ZM220.943 58.49C220.943 59.0685 221.017 59.5866 221.166 60.0432C221.314 60.5003 221.55 60.8669 221.873 61.144C222.195 61.421 222.563 61.5595 222.977 61.5595C223.465 61.5595 223.868 61.3665 224.186 60.9796C224.504 60.5931 224.664 60.0114 224.664 59.2338C224.664 58.3533 224.491 57.6316 224.146 57.0697C223.8 56.5073 223.303 56.2261 222.654 56.2261C222.117 56.2261 221.697 56.4205 221.395 56.8088C221.093 57.1976 220.943 57.7581 220.943 58.49Z" fill="#595959"/>
<path d="M228.4 55.8508L228.518 55.9316C228.493 56.2086 228.477 56.5725 228.468 57.0231C228.799 56.7502 229.113 56.4732 229.411 56.192C229.498 56.1135 229.58 56.0558 229.656 56.0184C229.732 55.9815 229.859 55.9417 230.037 55.9006C230.215 55.8591 230.397 55.8388 230.583 55.8388C230.897 55.8388 231.202 55.9025 231.498 56.0309C231.794 56.1592 232.017 56.3111 232.168 56.4866C232.319 56.6625 232.423 56.8703 232.481 57.1099C232.539 57.35 232.568 57.6455 232.568 57.9969V59.0884C232.568 59.1586 232.578 59.6734 232.599 60.6329C232.607 61.0253 232.651 61.259 232.729 61.3333C232.807 61.4081 233.064 61.4451 233.498 61.4451L233.548 61.4949V61.7613L233.498 61.8112C232.973 61.778 232.617 61.7613 232.431 61.7613C232.324 61.7613 232.022 61.778 231.526 61.8112L231.451 61.7429C231.505 61.2054 231.532 60.5045 231.532 59.6402V58.828C231.532 58.3399 231.521 57.9886 231.498 57.7734C231.475 57.5587 231.406 57.3634 231.29 57.1875C231.174 57.0116 231.019 56.8754 230.825 56.7784C230.63 56.681 230.399 56.6325 230.13 56.6325C229.915 56.6325 229.731 56.6542 229.578 56.6976C229.425 56.741 229.254 56.8296 229.063 56.9645C228.874 57.0988 228.733 57.2249 228.642 57.3426C228.551 57.4604 228.496 57.5698 228.477 57.6714C228.459 57.7725 228.45 57.9886 228.45 58.3192V59.3987C228.45 59.4896 228.458 59.7819 228.474 60.276C228.491 60.77 228.508 61.0586 228.527 61.1412C228.546 61.2239 228.573 61.2839 228.611 61.3213C228.648 61.3582 228.694 61.3823 228.747 61.3924C228.801 61.4026 229.024 61.4201 229.417 61.4451L229.473 61.4949V61.7553L229.424 61.8112C228.906 61.778 228.408 61.7613 227.928 61.7613C227.453 61.7613 226.957 61.778 226.44 61.8112L226.384 61.7553V61.4949L226.44 61.4451C226.841 61.4201 227.068 61.4016 227.12 61.3892C227.171 61.3767 227.216 61.3509 227.256 61.3116C227.295 61.2724 227.322 61.2123 227.337 61.132C227.351 61.0512 227.367 60.7848 227.386 60.3318C227.404 59.8793 227.414 59.5372 227.414 59.3054V58.0837C227.414 57.9184 227.406 57.6931 227.389 57.4077C227.373 57.1224 227.359 56.9465 227.349 56.8804C227.338 56.8144 227.307 56.7659 227.253 56.735C227.199 56.7036 227.091 56.6883 226.93 56.6883L226.409 56.6819L226.354 56.6325V56.3656L226.403 56.3162C227.192 56.2211 227.858 56.0659 228.4 55.8508Z" fill="#595959"/>
<path d="M237.852 53.3506V53.0902L237.902 53.0343C238.691 52.9434 239.357 52.7905 239.899 52.5753L240.017 52.6502C239.971 53.1253 239.948 54.0783 239.948 55.5092V59.5714C239.948 59.9888 239.956 60.3536 239.97 60.6657C239.985 60.9783 240.011 61.163 240.047 61.2212C240.085 61.2789 240.146 61.3264 240.23 61.3638C240.315 61.4008 240.556 61.4359 240.953 61.4691L241.009 61.5185V61.7544L240.953 61.8103C240.506 61.7812 240.159 61.7669 239.911 61.7669C239.688 61.7669 239.37 61.7812 238.956 61.8103L238.888 61.742C238.9 61.3366 238.907 61.0535 238.907 60.8924C238.907 60.8716 238.908 60.7931 238.913 60.6565C238.685 60.8218 238.458 61.006 238.231 61.2087C237.895 61.506 237.677 61.6921 237.573 61.7669C237.383 61.862 237.112 61.9096 236.76 61.9096C236.19 61.9096 235.705 61.7688 235.306 61.4876C234.907 61.2064 234.623 60.8476 234.453 60.4118C234.284 59.9754 234.199 59.528 234.199 59.0691C234.199 58.6018 234.287 58.1521 234.463 57.7199C234.638 57.2877 234.889 56.9728 235.213 56.7743C235.538 56.5757 235.891 56.3703 236.274 56.157C236.656 55.9441 237.036 55.8379 237.412 55.8379C237.937 55.8379 238.437 55.9681 238.913 56.2285L238.888 54.8452C238.879 54.3659 238.867 54.0321 238.851 53.8437C238.834 53.6558 238.813 53.544 238.788 53.509C238.764 53.4739 238.721 53.448 238.661 53.4314C238.601 53.4148 238.35 53.4065 237.908 53.4065L237.852 53.3506ZM238.913 57.2891C238.656 56.9996 238.372 56.7784 238.06 56.6252C237.748 56.4723 237.435 56.3957 237.12 56.3957C236.773 56.3957 236.449 56.4899 236.15 56.6782C235.85 56.8662 235.634 57.1455 235.502 57.5153C235.369 57.8852 235.303 58.2874 235.303 58.7214C235.303 59.4454 235.486 60.0262 235.852 60.4644C236.218 60.9026 236.678 61.1219 237.232 61.1219C237.534 61.1219 237.802 61.0526 238.035 60.9141C238.268 60.7756 238.461 60.5886 238.612 60.3527C238.763 60.1172 238.851 59.8812 238.876 59.6458C238.9 59.4098 238.913 58.9781 238.913 58.3497V57.2891Z" fill="#595959"/>
<path d="M134.192 42.0073H90.0567V42.7368H134.192V42.0073Z" fill="#FA5B35"/>
<path d="M241.01 42.0073H196.876V42.7368H241.01V42.0073Z" fill="#FA5B35"/>
<path d="M126.625 3.15389C126.625 3.02415 126.691 2.95905 126.823 2.95905H136.663C136.794 2.95905 136.861 3.02415 136.861 3.15389V4.22648C136.861 4.33037 136.808 4.38208 136.703 4.38208L133.956 4.7136C133.851 4.7136 133.798 4.7787 133.798 4.90844V15.729L143.579 4.86966C143.631 4.81749 143.645 4.75285 143.618 4.67482C143.592 4.59679 143.539 4.55753 143.46 4.55753L141.801 4.38208C141.668 4.38208 141.603 4.31744 141.603 4.18724V3.15389C141.603 3.02415 141.668 2.95905 141.801 2.95905H149.981C150.112 2.95905 150.179 3.02415 150.179 3.15389V4.18724C150.179 4.31744 150.112 4.38208 149.981 4.38208L146.207 4.75284C146.154 4.75284 146.114 4.76577 146.088 4.79163L137.75 14.0525C137.71 14.0783 137.684 14.1176 137.671 14.1693L137.71 14.2865L147.906 27.9532C147.959 28.0053 147.998 28.0312 148.025 28.0312L151.72 28.3821C151.851 28.3821 151.917 28.4537 151.917 28.5963V29.6297C151.917 29.7599 151.851 29.825 151.72 29.825H141.603C141.471 29.825 141.405 29.7599 141.405 29.6297V28.5963C141.405 28.4537 141.471 28.3821 141.603 28.3821L143.381 28.226C143.46 28.226 143.513 28.1937 143.539 28.1286C143.566 28.0635 143.566 27.9919 143.539 27.9144L135.319 17.0158C135.267 16.9507 135.214 16.9184 135.161 16.9184C135.109 16.9313 135.069 16.9636 135.043 17.0158L133.837 18.3608C133.811 18.4001 133.798 18.4388 133.798 18.4781V27.9144C133.798 28.0441 133.851 28.1092 133.956 28.1092L136.584 28.3821C136.689 28.3821 136.742 28.4343 136.742 28.5382V29.6297C136.742 29.7599 136.676 29.825 136.544 29.825H126.823C126.691 29.825 126.625 29.7599 126.625 29.6297V28.5963C126.625 28.4537 126.691 28.3821 126.823 28.3821L130.063 28.07C130.195 28.07 130.261 28.0053 130.261 27.8751V4.90844C130.261 4.7787 130.195 4.7136 130.063 4.7136L126.823 4.38208C126.691 4.38208 126.625 4.31744 126.625 4.18724V3.15389Z" fill="#0D0D0D"/>
<path d="M160.454 16.0424C159.94 16.3412 159.476 16.6953 159.061 17.1049C158.646 17.5144 158.284 17.9725 157.974 18.4794C157.665 18.9864 157.421 19.5063 157.244 20.0391C157.066 20.572 156.977 21.1048 156.977 21.6376C156.977 22.5735 157.138 23.4217 157.461 24.1822C157.783 24.9422 158.235 25.5858 158.814 26.1122C159.394 26.6386 160.069 27.0514 160.839 27.3501C161.61 27.6493 162.424 27.7984 163.28 27.7984C164.281 27.7984 165.276 27.5648 166.263 27.0966C167.251 26.6289 168.134 25.8749 168.911 24.8351L160.454 16.0424ZM162.608 4.18859C162.2 4.18859 161.808 4.26338 161.432 4.41298C161.057 4.56212 160.728 4.77035 160.444 5.03676C160.161 5.30318 159.937 5.62824 159.772 6.01148C159.608 6.39517 159.526 6.84027 159.526 7.34678C159.526 8.30902 159.802 9.2477 160.356 10.1642C160.909 11.0807 161.686 12.0587 162.687 13.0985C163.925 12.4876 164.848 11.7563 165.453 10.9053C166.059 10.0539 166.362 9.06901 166.362 7.95118C166.362 6.75577 166.033 5.82955 165.374 5.17298C164.716 4.51687 163.794 4.18859 162.608 4.18859ZM163.28 2.35599C164.202 2.35599 165.042 2.4959 165.799 2.77524C166.557 3.05459 167.205 3.42811 167.745 3.8963C168.286 4.36403 168.697 4.90979 168.981 5.53404C169.264 6.15783 169.405 6.82734 169.405 7.5421C169.405 8.10078 169.33 8.67285 169.178 9.25785C169.027 9.8424 168.75 10.4274 168.348 11.0124C167.946 11.597 167.38 12.169 166.649 12.7282C165.918 13.2869 164.973 13.8326 163.813 14.3655L171.026 21.8717C171.368 21.3389 171.701 20.7474 172.023 20.0973C172.346 19.4477 172.623 18.7911 172.853 18.1285C173.084 17.4655 173.282 16.8126 173.446 16.169C173.61 15.5258 173.719 14.9569 173.771 14.4633C173.771 14.268 173.68 14.1706 173.495 14.1706L170.532 13.9365C170.4 13.9365 170.334 13.8719 170.334 13.7417V12.6889C170.334 12.5592 170.4 12.4941 170.532 12.4941H179.186C179.331 12.4941 179.404 12.5592 179.404 12.6889V13.7417C179.404 13.8719 179.331 13.9365 179.186 13.9365L175.906 14.1706C175.748 14.1965 175.656 14.2357 175.629 14.2879C175.603 14.3396 175.59 14.3982 175.59 14.4633C175.537 15.022 175.422 15.6588 175.244 16.374C175.066 17.0887 174.829 17.839 174.533 18.6258C174.236 19.4121 173.907 20.2114 173.544 21.0235C173.182 21.8362 172.784 22.5865 172.349 23.2754L176.934 27.9933C176.986 28.0455 177.052 28.0713 177.131 28.0713L180.49 28.3834C180.622 28.3834 180.688 28.455 180.688 28.5977V29.631C180.688 29.7612 180.622 29.8263 180.49 29.8263H173.97C173.891 29.8263 173.825 29.8 173.771 29.7483L170.295 26.1999C169.781 26.7849 169.247 27.3307 168.694 27.8377C168.141 28.3447 167.518 28.7898 166.827 29.173C166.135 29.5567 165.351 29.8554 164.476 30.0697C163.599 30.2844 162.582 30.3915 161.423 30.3915C160.263 30.3915 159.199 30.2031 158.231 29.8263C157.263 29.4491 156.413 28.9421 155.682 28.3054C154.952 27.6687 154.379 26.9179 153.963 26.0536C153.548 25.1892 153.341 24.263 153.341 23.2754C153.341 21.495 153.825 19.9122 154.793 18.5279C155.761 17.1437 157.26 15.8928 159.288 14.775C158.748 14.1641 158.294 13.6055 157.925 13.0985C157.556 12.5915 157.26 12.0975 157.036 11.6168C156.812 11.1357 156.651 10.6486 156.552 10.1545C156.453 9.66048 156.404 9.13411 156.404 8.57542C156.404 7.67829 156.575 6.84996 156.918 6.0895C157.26 5.32903 157.741 4.6697 158.36 4.11055C158.979 3.55186 159.707 3.11968 160.543 2.81402C161.38 2.50882 162.292 2.35599 163.28 2.35599Z" fill="#0D0D0D"/>
<path d="M190.369 14.5008C190.369 14.6305 190.435 14.6956 190.567 14.6956H191.812C194.011 14.6956 195.671 14.3641 196.791 13.7015C198.28 12.8178 199.024 11.4336 199.024 9.54879C199.024 7.98908 198.491 6.8126 197.424 6.01982C196.435 5.29214 195.177 4.90198 193.649 4.85026L192.108 4.79163H190.567C190.435 4.79163 190.369 4.85673 190.369 4.98648V14.5008ZM190.369 27.7971C190.369 27.9273 190.435 27.9919 190.567 27.9919H193.116C197.963 27.9919 200.387 26.1921 200.387 22.5916C200.387 18.3414 197.707 16.2166 192.345 16.2166H190.567C190.435 16.2166 190.369 16.2817 190.369 16.4114V27.7971ZM192.622 2.95905C195.955 2.95905 198.319 3.32934 199.716 4.07041C200.677 4.57738 201.388 5.19472 201.85 5.9224C202.416 6.83246 202.699 7.89165 202.699 9.10045C202.699 11.9077 201.053 13.8899 197.759 15.0465C199.643 15.4496 201.197 16.2683 202.423 17.5034C203.766 18.8419 204.438 20.421 204.438 22.2407C204.438 23.7094 204.01 25.0678 203.154 26.3154C201.546 28.655 198.346 29.825 193.551 29.825H183.196C183.065 29.825 182.999 29.7599 182.999 29.6297V28.5963C182.999 28.4537 183.065 28.3821 183.196 28.3821L186.635 28.07C186.766 28.07 186.832 28.0053 186.832 27.8751V4.90844C186.832 4.7787 186.766 4.7136 186.635 4.7136L183.196 4.38208C183.065 4.38208 182.999 4.31744 182.999 4.18724V3.15389C182.999 3.02415 183.065 2.95905 183.196 2.95905H192.622Z" fill="#0D0D0D"/>
<path d="M141.204 37.5098C141.155 37.5098 141.13 37.5342 141.13 37.5836V41.8781C141.13 41.9275 141.155 41.952 141.204 41.952H142.082C143.863 41.952 144.753 41.1722 144.753 39.6129C144.753 38.8552 144.476 38.3044 143.92 37.9599C143.438 37.6598 142.778 37.5098 141.942 37.5098H141.204ZM142.2 36.8163C143.164 36.8163 143.892 36.8998 144.385 37.067C145.629 37.4899 146.251 38.3681 146.251 39.7016C146.251 40.5918 145.853 41.3199 145.056 41.8855C144.348 42.3824 143.526 42.6409 142.591 42.6603L141.13 42.4022V46.247C141.13 46.2908 141.155 46.3158 141.204 46.3204L142.636 46.4386C142.69 46.4437 142.717 46.4705 142.717 46.5199V46.911C142.717 46.9599 142.69 46.9848 142.636 46.9848H138.422C138.373 46.9848 138.348 46.9599 138.348 46.911V46.5199C138.348 46.4658 138.373 46.4386 138.422 46.4386L139.706 46.3204C139.755 46.3204 139.78 46.2959 139.78 46.247V37.5541C139.78 37.5047 139.755 37.4802 139.706 37.4802L138.422 37.3546C138.373 37.3546 138.348 37.3301 138.348 37.2812V36.8901C138.348 36.8407 138.373 36.8163 138.422 36.8163H142.2Z" fill="#0D0D0D"/>
<path d="M150.812 43.8399C150.296 43.8694 149.907 43.9262 149.647 44.0098C149.578 44.0296 149.457 44.0689 149.285 44.128C148.763 44.3048 148.503 44.6936 148.503 45.2938C148.503 45.9384 148.825 46.2602 149.469 46.2602C149.656 46.2602 149.883 46.2136 150.148 46.1203C150.281 46.0709 150.478 45.98 150.739 45.8474C150.788 45.8128 150.812 45.7833 150.812 45.7588V43.8399ZM150.916 46.3193C150.281 46.9048 149.593 47.1975 148.85 47.1975C148.077 47.1975 147.556 46.8803 147.285 46.2459C147.197 46.0391 147.152 45.8179 147.152 45.5815C147.152 44.7504 147.575 44.14 148.422 43.7517C148.677 43.6335 148.938 43.5476 149.204 43.4931C149.794 43.3703 150.33 43.289 150.812 43.2498V42.0839C150.812 41.3018 150.429 40.9107 149.661 40.9107C149.224 40.9107 148.842 40.9892 148.518 41.1466C148.488 41.1711 148.463 41.2131 148.444 41.2722L148.23 42.3864C148.23 42.4307 148.205 42.4528 148.156 42.4528H147.684C147.634 42.4528 147.61 42.4307 147.61 42.3864V40.7112C147.61 40.6817 147.634 40.6572 147.684 40.6373C148.481 40.352 149.236 40.2093 149.949 40.2093C150.957 40.2093 151.612 40.5122 151.912 41.1171C152.025 41.3433 152.082 41.6314 152.082 41.9805V46.0612C152.082 46.1005 152.101 46.13 152.141 46.1499L153.092 46.4228C153.142 46.4523 153.169 46.4768 153.174 46.4966V46.7547C153.154 46.8088 153.132 46.836 153.107 46.836L151.115 47.1015C151.066 47.1015 151.041 47.077 151.041 47.0281L150.916 46.3193Z" fill="#0D0D0D"/>
<path d="M158.131 40.2093C158.283 40.2093 158.472 40.2564 158.699 40.3497C158.925 40.443 159.093 40.5441 159.201 40.6521C159.215 40.6623 159.228 40.6817 159.238 40.7112C159.247 40.7408 159.243 40.7652 159.223 40.7851L158.478 41.8475C158.443 41.8969 158.416 41.9214 158.396 41.9214C158.381 41.9214 158.369 41.9168 158.359 41.9066C158.138 41.6855 157.894 41.5746 157.629 41.5746C157.299 41.5746 157.009 41.7196 156.758 42.0101L156.315 42.5267C156.276 42.571 156.257 42.6251 156.257 42.6888V46.275C156.257 46.3193 156.281 46.3443 156.33 46.3489L157.614 46.4523C157.668 46.4574 157.695 46.4842 157.695 46.5336V46.9099C157.695 46.9588 157.668 46.9837 157.614 46.9837H153.902C153.848 46.9837 153.821 46.9588 153.821 46.9099V46.5336C153.821 46.4796 153.848 46.4523 153.902 46.4523L154.958 46.3489C155.007 46.3489 155.032 46.3244 155.032 46.275V41.287C155.032 41.2376 155.007 41.2131 154.958 41.2131L153.873 41.0875C153.819 41.0875 153.792 41.0631 153.792 41.0136V40.6669C153.792 40.6179 153.811 40.593 153.851 40.593L155.666 40.2906C155.72 40.2809 155.752 40.2758 155.762 40.2758H156.183C156.232 40.2758 156.257 40.3003 156.257 40.3497V41.7519L157.061 40.8146C157.405 40.4111 157.762 40.2093 158.131 40.2093Z" fill="#0D0D0D"/>
<path d="M160.345 41.2581C160.345 41.2087 160.318 41.1842 160.264 41.1842H159.393C159.349 41.1842 159.327 41.1621 159.327 41.1177V41.0439C159.327 41.0143 159.344 40.9848 159.378 40.9557L161.312 39.0072C161.356 38.9629 161.395 38.9412 161.43 38.9412H161.504C161.548 38.9412 161.57 38.9679 161.57 39.022V40.4094C161.57 40.4584 161.595 40.4833 161.644 40.4833H163.651C163.7 40.4833 163.725 40.5101 163.725 40.5646V41.103C163.725 41.157 163.7 41.1842 163.651 41.1842H161.644C161.595 41.1842 161.57 41.2087 161.57 41.2581V45.2797C161.57 46.0028 161.892 46.3643 162.537 46.3643C163.009 46.3643 163.39 46.2438 163.68 46.0028C163.7 45.9834 163.725 45.976 163.754 45.9806C163.774 45.9857 163.791 45.9931 163.806 46.0028L163.998 46.3791C164.008 46.4234 163.993 46.4581 163.954 46.4825C163.565 46.7434 163.23 46.9202 162.95 47.014C162.576 47.1368 162.195 47.1982 161.806 47.1982C161.393 47.1982 161.046 47.0703 160.765 46.8145C160.485 46.5587 160.345 46.2267 160.345 45.8186V41.2581Z" fill="#0D0D0D"/>
<path d="M166.443 40.292C166.497 40.2823 166.529 40.2772 166.539 40.2772H166.959C167.009 40.2772 167.033 40.3017 167.033 40.3511V41.0003C167.486 40.6415 168.042 40.3903 168.701 40.2476C168.903 40.2033 169.124 40.1812 169.365 40.1812C170.664 40.1812 171.313 40.9121 171.313 42.373V46.2764C171.313 46.3258 171.338 46.3503 171.387 46.3503L172.368 46.4537C172.417 46.4537 172.442 46.4809 172.442 46.535V46.9113C172.442 46.9602 172.417 46.9851 172.368 46.9851H169.062C169.008 46.9851 168.981 46.9602 168.981 46.9113V46.535C168.981 46.4809 169.008 46.4537 169.062 46.4537L170.015 46.3503C170.063 46.3503 170.088 46.3258 170.088 46.2764V42.8158C170.088 42.2746 169.992 41.8761 169.8 41.6204C169.579 41.3299 169.205 41.1849 168.679 41.1849C168.084 41.1849 167.56 41.3004 167.107 41.5317C167.068 41.5516 167.043 41.5709 167.033 41.5908V46.2764C167.033 46.3258 167.058 46.3503 167.107 46.3503L168.059 46.4537C168.113 46.4537 168.14 46.4809 168.14 46.535V46.9113C168.14 46.9602 168.113 46.9851 168.059 46.9851H164.679C164.625 46.9851 164.598 46.9602 164.598 46.9113V46.535C164.598 46.4809 164.625 46.4537 164.679 46.4537L165.734 46.3503C165.784 46.3503 165.808 46.3258 165.808 46.2764V41.2884C165.808 41.239 165.784 41.2145 165.734 41.2145L164.65 41.0889C164.596 41.0889 164.568 41.0644 164.568 41.015V40.6683C164.568 40.6193 164.588 40.5944 164.628 40.5944L166.443 40.292Z" fill="#0D0D0D"/>
<path d="M176.236 40.8811C175.449 40.8811 174.94 41.3189 174.709 42.1947C174.639 42.4552 174.595 42.7109 174.576 42.9621H177.66C177.704 41.5746 177.23 40.8811 176.236 40.8811ZM174.561 43.5522C174.581 44.3736 174.773 45.0283 175.137 45.515C175.554 46.0709 176.157 46.3489 176.944 46.3489C177.574 46.3489 178.165 46.1767 178.715 45.8327C178.735 45.8128 178.752 45.8077 178.767 45.8179C178.777 45.8327 178.789 45.8474 178.804 45.8618L179.018 46.2312C179.028 46.275 179.013 46.3096 178.974 46.3341C178.113 46.9099 177.242 47.1975 176.361 47.1975C175.378 47.1975 174.603 46.8928 174.037 46.2824C173.481 45.6923 173.203 44.9028 173.203 43.9137C173.203 42.9003 173.474 42.047 174.015 41.3535C174.605 40.5907 175.392 40.2093 176.376 40.2093C177.247 40.2093 177.909 40.4577 178.361 40.955C178.799 41.4371 179.018 42.1158 179.018 42.9917C179.018 43.1487 179.008 43.3112 178.989 43.4783C178.989 43.5277 178.964 43.5522 178.915 43.5522H174.561Z" fill="#0D0D0D"/>
<path d="M184.396 40.2093C184.549 40.2093 184.738 40.2564 184.964 40.3497C185.191 40.443 185.358 40.5441 185.466 40.6521C185.481 40.6623 185.493 40.6817 185.503 40.7112C185.513 40.7408 185.508 40.7652 185.488 40.7851L184.743 41.8475C184.708 41.8969 184.681 41.9214 184.662 41.9214C184.647 41.9214 184.635 41.9168 184.625 41.9066C184.403 41.6855 184.16 41.5746 183.894 41.5746C183.565 41.5746 183.274 41.7196 183.024 42.0101L182.581 42.5267C182.541 42.571 182.522 42.6251 182.522 42.6888V46.275C182.522 46.3193 182.546 46.3443 182.596 46.3489L183.88 46.4523C183.934 46.4574 183.96 46.4842 183.96 46.5336V46.9099C183.96 46.9588 183.934 46.9837 183.88 46.9837H180.168C180.113 46.9837 180.087 46.9588 180.087 46.9099V46.5336C180.087 46.4796 180.113 46.4523 180.168 46.4523L181.223 46.3489C181.272 46.3489 181.297 46.3244 181.297 46.275V41.287C181.297 41.2376 181.272 41.2131 181.223 41.2131L180.138 41.0875C180.084 41.0875 180.057 41.0631 180.057 41.0136V40.6669C180.057 40.6179 180.077 40.593 180.116 40.593L181.931 40.2906C181.986 40.2809 182.018 40.2758 182.027 40.2758H182.448C182.497 40.2758 182.522 40.3003 182.522 40.3497V41.7519L183.326 40.8146C183.671 40.4111 184.027 40.2093 184.396 40.2093Z" fill="#0D0D0D"/>
<path d="M189.524 42.3273C189.474 42.3125 189.45 42.2931 189.45 42.2682L189.206 41.0875C189.206 41.0483 189.187 41.0187 189.147 40.9989C188.901 40.8858 188.623 40.8294 188.313 40.8294C187.782 40.8294 187.415 41.009 187.214 41.3683C187.14 41.5008 187.103 41.6462 187.103 41.8032C187.103 42.2608 187.467 42.6371 188.195 42.9326L188.83 43.1907C189.937 43.6432 190.49 44.2582 190.49 45.0357C190.49 45.7094 190.21 46.2482 189.649 46.6518C189.147 47.0156 188.547 47.1975 187.849 47.1975C187.342 47.1975 186.746 47.0821 186.063 46.8508C186.014 46.8411 185.989 46.8138 185.989 46.7695V45.021C185.989 44.9813 186.014 44.9619 186.063 44.9619H186.528C186.582 44.9619 186.609 44.9813 186.609 45.021L186.845 46.2312C186.85 46.2505 186.872 46.2801 186.911 46.3193C187.256 46.4819 187.612 46.5631 187.981 46.5631C188.847 46.5631 189.28 46.1988 189.28 45.4707C189.28 45.0427 189.059 44.7232 188.616 44.5117C188.542 44.4771 188.407 44.4156 188.21 44.327L187.531 44.0541C186.464 43.6261 185.93 42.9963 185.93 42.1652C185.93 41.5747 186.196 41.0875 186.727 40.7038C187.184 40.3742 187.733 40.2093 188.372 40.2093C188.894 40.2093 189.433 40.3003 189.989 40.4827C190.043 40.4924 190.069 40.5196 190.069 40.5639V42.2682C190.069 42.3079 190.043 42.3273 189.989 42.3273H189.524Z" fill="#0D0D0D"/>
<path d="M37.9372 58.3584C30.2038 50.2652 18.9931 48.8704 12.3018 48.8547C10.7148 48.8505 9.42386 47.5614 9.42386 45.9804V2.87469C9.42386 2.10315 9.72398 1.37871 10.2697 0.83434C10.8095 0.296431 11.5238 0 12.2838 0H12.2907C18.9973 0.0156987 31.1947 1.56894 37.542 11.7911C37.8006 12.2075 37.9372 12.7108 37.9372 13.2469L37.9377 13.1966C37.946 12.6794 38.0822 12.1946 38.3325 11.7911C44.6798 1.56894 56.8777 0.0156987 63.5838 0H63.5911C64.3502 0 65.065 0.295969 65.6047 0.83434C66.1505 1.37825 66.4506 2.10315 66.4506 2.87469V45.9804C66.4506 47.5609 65.1596 48.85 63.5727 48.8542C56.8814 48.8704 45.6711 50.2648 37.9372 58.3579V58.3584Z" fill="#FA5B35"/>
<path d="M72.9992 9.94241H70.9145V45.9819C70.9145 50.0178 67.6265 53.309 63.5841 53.3192C57.9086 53.3326 48.5504 54.4421 41.9228 60.7151C53.3851 57.9087 65.4689 59.733 72.3555 61.3024C73.2153 61.4982 74.1041 61.2959 74.793 60.7469C75.4791 60.1989 75.8729 59.3802 75.8729 58.5016V12.8167C75.8734 11.232 74.5838 9.94241 72.9992 9.94241Z" fill="#CF3A17"/>
<path d="M4.95847 45.9819V9.94241H2.87423C1.28959 9.94241 0 11.232 0 12.8167V58.5007C0 59.3798 0.39385 60.1984 1.08044 60.746C1.76841 61.2946 2.6563 61.4977 3.51742 61.3015C10.404 59.7321 22.4879 57.9078 33.9502 60.7142C27.3226 54.4416 17.9643 53.3321 12.2888 53.3187C8.24687 53.309 4.95847 50.0178 4.95847 45.9819Z" fill="#CF3A17"/>
<path d="M18.3292 23.6443C18.3292 23.5727 18.3652 23.5372 18.4363 23.5372H23.7707C23.8422 23.5372 23.8778 23.5727 23.8778 23.6443V24.2334C23.8778 24.2902 23.8496 24.3189 23.7924 24.3189L22.3033 24.5012C22.246 24.5012 22.2179 24.5368 22.2179 24.6079V30.5531L27.5199 24.5867C27.5485 24.558 27.5559 24.5225 27.5416 24.4795C27.5273 24.4366 27.4986 24.4154 27.4557 24.4154L26.5558 24.3189C26.4847 24.3189 26.4487 24.2833 26.4487 24.2117V23.6443C26.4487 23.5727 26.4847 23.5372 26.5558 23.5372H30.9907C31.0618 23.5372 31.0978 23.5727 31.0978 23.6443V24.2117C31.0978 24.2833 31.0618 24.3189 30.9907 24.3189L28.9448 24.5225C28.9161 24.5225 28.8944 24.5294 28.8806 24.5437L24.3598 29.6319C24.3386 29.6462 24.3243 29.6675 24.3173 29.6961L24.3386 29.7603L29.8659 37.2693C29.8945 37.298 29.9158 37.3123 29.9301 37.3123L31.933 37.5048C32.0046 37.5048 32.0402 37.544 32.0402 37.623V38.1905C32.0402 38.262 32.0046 38.2976 31.933 38.2976H26.4487C26.3776 38.2976 26.3415 38.262 26.3415 38.1905V37.623C26.3415 37.544 26.3776 37.5048 26.4487 37.5048L27.4127 37.4194C27.4557 37.4194 27.4843 37.4014 27.4986 37.3658C27.5129 37.3303 27.5129 37.2906 27.4986 37.2481L23.0425 31.26C23.0139 31.2244 22.9853 31.2064 22.9566 31.2064C22.928 31.2138 22.9068 31.2313 22.8925 31.26L22.2391 31.9992C22.2248 32.0204 22.2179 32.0421 22.2179 32.0634V37.2481C22.2179 37.3192 22.246 37.3552 22.3033 37.3552L23.7282 37.5048C23.785 37.5048 23.8136 37.5334 23.8136 37.5907V38.1905C23.8136 38.262 23.778 38.2976 23.7065 38.2976H18.4363C18.3652 38.2976 18.3292 38.262 18.3292 38.1905V37.623C18.3292 37.544 18.3652 37.5048 18.4363 37.5048L20.1932 37.3335C20.2648 37.3335 20.3003 37.2979 20.3003 37.2264V24.6079C20.3003 24.5368 20.2648 24.5012 20.1932 24.5012L18.4363 24.3189C18.3652 24.3189 18.3292 24.2833 18.3292 24.2117V23.6443Z" fill="white"/>
<path d="M36.8554 29.8785C36.8554 29.9496 36.8909 29.9856 36.9625 29.9856H37.6371C38.8297 29.9856 39.7296 29.8032 40.3368 29.4389C41.1434 28.9537 41.5469 28.1932 41.5469 27.1575C41.5469 26.3006 41.2579 25.6542 40.6794 25.2188C40.1438 24.8189 39.4618 24.6047 38.6335 24.5761L37.7977 24.5437H36.9625C36.8909 24.5437 36.8554 24.5797 36.8554 24.6508V29.8785ZM36.8554 37.1834C36.8554 37.255 36.8909 37.2906 36.9625 37.2906H38.3444C40.9721 37.2906 42.2862 36.3015 42.2862 34.3235C42.2862 31.9886 40.8327 30.8209 37.9266 30.8209H36.9625C36.8909 30.8209 36.8554 30.8564 36.8554 30.928V37.1834ZM38.0766 23.5372C39.8829 23.5372 41.1651 23.7403 41.9219 24.1476C42.4432 24.426 42.8287 24.7654 43.0789 25.1652C43.386 25.6648 43.5393 26.247 43.5393 26.911C43.5393 28.4536 42.6468 29.5428 40.8613 30.1782C41.8826 30.3998 42.7253 30.8495 43.3892 31.5278C44.1178 32.2633 44.4821 33.1309 44.4821 34.131C44.4821 34.9376 44.2499 35.6842 43.7858 36.3694C42.9146 37.6549 41.1794 38.2976 38.5799 38.2976H32.9667C32.8956 38.2976 32.8596 38.262 32.8596 38.1905V37.623C32.8596 37.544 32.8956 37.5048 32.9667 37.5048L34.8307 37.3335C34.9023 37.3335 34.9378 37.2979 34.9378 37.2264V24.6079C34.9378 24.5368 34.9023 24.5012 34.8307 24.5012L32.9667 24.3189C32.8956 24.3189 32.8596 24.2833 32.8596 24.2117V23.6443C32.8596 23.5727 32.8956 23.5372 32.9667 23.5372H38.0766Z" fill="white"/>
<path d="M50.2052 24.5437C50.134 24.5437 50.098 24.5797 50.098 24.6508V30.8851C50.098 30.9566 50.134 30.9922 50.2052 30.9922H51.48C54.0652 30.9922 55.3571 29.8605 55.3571 27.5967C55.3571 26.4968 54.954 25.6971 54.1469 25.1971C53.4474 24.7617 52.4902 24.5437 51.2764 24.5437H50.2052ZM51.6513 23.5372C53.0512 23.5372 54.1081 23.6581 54.8215 23.901C56.6287 24.5151 57.5323 25.7899 57.5323 27.725C57.5323 29.0178 56.9537 30.0747 55.7966 30.8957C54.7679 31.6173 53.5757 31.9923 52.2192 32.0204L50.098 31.6455V37.2264C50.098 37.2906 50.134 37.3266 50.2052 37.3335L52.2834 37.5048C52.3619 37.5122 52.4011 37.5514 52.4011 37.623V38.1905C52.4011 38.262 52.3619 38.2976 52.2834 38.2976H46.1669C46.0958 38.2976 46.0598 38.262 46.0598 38.1905V37.623C46.0598 37.544 46.0958 37.5048 46.1669 37.5048L48.0309 37.3335C48.1025 37.3335 48.138 37.2979 48.138 37.2264V24.6079C48.138 24.5368 48.1025 24.5012 48.0309 24.5012L46.1669 24.3189C46.0958 24.3189 46.0598 24.2833 46.0598 24.2117V23.6443C46.0598 23.5727 46.0958 23.5372 46.1669 23.5372H51.6513Z" fill="white"/>
</svg>
