<svg height="168.504" viewBox="0 0 234.548 168.504" width="234.548" xmlns="http://www.w3.org/2000/svg"><g fill="#fff" fill-rule="evenodd"><path d="m33.958-61.916c15.291-2.569 20.772 17.323 7.625 24.163-4.723 2.457-13.3-3.635-15.061-8.179-1.779-4.578 1.305-14.954 7.436-15.984zm29.9-1.708c18.769-1.395 44.139.266 63.414.88 8.758.279 22.555-.392 23.16 11.553.751 14.835-11.119 11.628-20.637 12.652a285.072 285.072 0 0 1 -32.234 1.022c-11.061-.183-22.126.517-32.906.264-25.174-.582-10.455-.047-11.812-13.147-1.486-14.321-11.554-11.546 11.017-13.224zm-39.087 4.175c-5.871 11.738-.086 24.449 12.517 25.288 12.7.846 27.263-.091 40.139-.4 13.719-.326 27.259.22 40.936-.279 5.868-.214 13.188-.835 18.874-.715 6.662.139 10.554 1.517 14.329-5.328 7.08-12.84 1.345-24.749-13.494-24.415-12.6.282-26.273-1.04-38.942-1.192-13.321-.159-26.417.448-39.536.468-6.216.009-12.979.708-18.945.176-6.852-.612-12.358-.638-15.878 6.394" transform="translate(-22.467 107.064)"/><path d="m70.453 21.275c-4.567.506-4.758 1-5.717-2.7-.668-2.575-.165-5.442.371-8.08.664-3.272.939-12.195 6.848-7.235zm4.973-47.452c1.967-.28.084 1.726 4.4 1.367a5.448 5.448 0 0 1 4.858 1.984c2.883 3.695 3.479 5.517 2.966 10.153-.29 2.623-2.573 7.037-4.393 8.994-5.074 5.452-5.528 1.864-8.453 1.3-1.116-.215-4.746 2.359-9.32-1.681-2.614-2.309-3.707-6.238-3.9-9.611-.325-5.615 8.532-11.748 13.842-12.506zm.832-20.7c-5.357-3.193-8.767 1.044-7.943-3.892.237-1.422-.507-3.381-2.059-2.722-2.166.919-1.573 3.23-2.265 5.017-2.344.345-6.882-2.84-8.824-2.833-1.77.006-3.276 1.44-2.206 2.982.921 1.327 3.2.779 3.894 1.775l-4.255 1.067.11.44c-2.267 4.645 8.708 1.862 10.771 2.066 1.2 3.183-.164 9-.267 12.676-.206 7.364.351 3.569-2.866 9.62-6.448 12.143 2.981 17.988 3.084 20.775.032.88-2.072 10.393-2.447 11.974-.905 3.809 1.091 9.237.166 11.955-1.212 3.562-1.857 8.666-2.346 12.523-.6 4.7-.148 8.832-6.128 7.086-1.014 2.512-1.128 2.105-1.095 4.1l10.618-1.282-.086-.708c-.139-5.011-1.4-22.814 7.244-20.42l4.821 21.94c4.258.521 11.252-3.1 6.966-5.069l-.093-.376c-2.624.653-3.228 1.038-5.6 1.01l-1.918-38.551 2.024-.226c1.025 2.647 3.958 11.237 5.324 12.981l7.718-4.221-.464-1.482-5.6-.356-3.057-7.681c.934-.858 2.661-.486 5.273-3.066 4.6-4.547 8.376-12.723 5.674-19.518-3.857-9.7-15.443-14.277-23.3-7.225l.619-16.656.557.377z" transform="translate(3.449 118.543)"/><path d="m91.27-21.832c10.258-.726 7.736 1.613 7.93 10.72.228 10.705.58 9.259-8.982 7.863-10.418-1.523-10.201 2.949-9.148-9.751.663-7.983 2.054-8.255 10.2-8.832zm10.889.351c-.314-7.628-22.688-3.792-24.107 1.047-.93 3.171.361 12.643-2.92 13.873-2.482.93-5-.317-7.626 1.643-2.008 1.5-3.137 3.984-.3 5.352 4.249 2.044 10.05 2.037 14.611 1.966 2.893-.048 4.549-1 7.706-.756 2.4.183 4.891.7 7.29.658 8.073-.137 5.579-18.072 5.345-23.779" transform="translate(15.845 143.308)"/><path d="m33.053-58.228c5.723-1.709 11.23 7.276 3.117 10.908-5.92 2.65-10.808-8.612-3.117-10.908zm-1.713-4.4c-11.24 3.677-5.112 22.582 5.66 18.414 14.841-5.74 3.805-21.508-5.664-18.412" transform="translate(-19.899 110.17)"/><path d="m61.1-32.184c-5.882-.275 3.393 13.919 12.31 6.5 5.307-4.413-.624-2.824-3.5-2.115-6.464 1.595-6.253-4.268-8.814-4.388" transform="translate(10.287 137.623)"/><path d="m79.348-33.688c-5.446-1.108-3.161 2.969-3.125 3.178.282 1.653.284 9.793 4.011 6.043 1.336-1.345.587-1.859.21-2.965-1.965-5.746-.31-3.912-1.095-6.256" transform="translate(24.939 136.118)"/><path d="m79.782-28.495c1.76 2.709 3.14 2.141 3.93-.85.27-1.025 1.271-1.914 1.5-2.645a2.415 2.415 0 0 0 -.563-1.92c-2.907.367-3.422.292-4.871 5.416" transform="translate(28.558 136.09)"/><path d="m87.1-27.619a4.036 4.036 0 0 0 3.228-2.171c1.138-1.742.758-.767 1.687-1.478.032-.025 1.736-2.66-1.857-2.506-2.007.087-2.437 1.559-2.969 2.437-.266.439-.868.973-1.282 1.659.338.559.355.2.734.967.326.66-.016.471.459 1.092" transform="translate(34.015 136.205)"/><path d="m64.865-32.907c.576-.924-.2-.486.648-1.138-.377-.829-.446-.269-.1-1.113a4.46 4.46 0 0 0 -2.14-1.559c-1.581-.738-3.274 2.192-.8 3.521 1.293.694 1.1.068 2.385.289" transform="translate(12.038 133.487)"/><path d="m65.364-32.819c2.689 1.1 4.739-1.617 2.961-3.193-1.213-1.075-3.631-.407-3.125 1.536l.108.294c.159.667-.075.564.056 1.363" transform="translate(15.515 133.763)"/><path d="m56.744-83.012c2.426-1.363 9.454-2.045 11.706-.344-2.639 1.228-8.658.869-11.706.344zm16.956 35.975c.257.315 1.47-.376.753 2.492-.551 2.207-.462.929-1.44 1.518-1.52-3.696.471-3.773.687-4.01zm-20.212-32.835c1.455-.118 18.681-.792 18.725-.776 1.856.646 3.139 4.716 3.608 6.672 1.614 6.736-2.482 3.391-2.774 3.323-3.069 3.545-5.18 6.641-10.849 5.258a9.371 9.371 0 0 1 -5.425-3.614c-2.916-3.713.277-4.416-3.624-4.658-2.39 4.913 2.2 9.923 6.837 10.962 7.614 1.705 8.807-.807 13.554-4.062.234 3.558-3.527 5.314-6.8 6.433-7.306 2.493-21.534-7.183-13.252-19.538zm22.057 25.128c1.23.511 2.952 2.154 2.68 3.838-1.7.968-1.5.6-3.845.607-.315-2.587-.869-3.056 1.165-4.445zm1.925-10.213c2.525.289 2.346-.106 3.673 1.528l-.663 2.437-6.119-.166c.406-1.768 1.487-2.469 3.108-3.799zm1.465-3.243c.506-2.215 2.513-5.381 4.671-5.968l-1.448 6.125c-1.738.662-1.172.505-3.223-.157zm3.093 15.457c1.391-2.465.577.284 3.048-2.537.575 1.973.834 2.082-.008 3.979zm2.246-4.786c.856.763.636-1.345.588 1.508zm-.315-3.526c.016-2.667-.177-3.139 2.712-2.925a19.05 19.05 0 0 1 5.183 1c-.447 2.543 1.015 2.771-7.895 1.921zm32.421 11.61c1.817 1.969 2.044 4.594 3.19 7.13l2.99-.524c.6-3.043-1.641-7.55-3.614-9.854-12.437-1.9-8.518 5.13-17.136-6.5-6.147-8.3-6.156-6.695-16.325-8-.285-2.867 2.088-8.4 2.217-12.432-4.806-.5-4.353 2.52-8.142 4.7-1.921-1.945-3.541-6.069-4.283-8.829-2.224-.561-4.058-2.069-6.2-2.67-1.886-.529-2.835-.215-4.175-.448-2.147-.374.185-.194-2.735-1.1-2.181 1.6.016.869-2.83 1.811a23.11 23.11 0 0 0 -3.32 1.02c-4.679 2.243-4.846.314-7.356 1.684-1.1 2.724-.375 1.576 1.809 3.162-8.09 16.39 4.318 19.706 7.8 23.026l-11.009 16.989c-2.038 1.94-4.041 1.051-6.753 1.9.771 3.834 1.857 2.027 5.57 2.477-.225 1.994-.591 1.476.491 3.151 1.963-.129 1.7-.749 3-2.215l3.363.961c.866-3.158-.079-3.5-2.216-5.364a76.986 76.986 0 0 1 8.4-13.958c3.672-4.787 2.273-2.685 7.376-4.084 4.592-1.26 4.033-1.254 8.886-.25-5.5 2.118-4.494 3.667-5.313 9.5-.579 4.127-2.182 8.491 1.135 11.8 6.607.406 5.26-6.546 6.571-11.013 3.479-.4 8.072-.224 11.245-2.394l-.963-7.909 3.192.079c.546 4.236-2.5 8.671-1.907 12.869 2.194 1.448 4.085 1.192 6.675 1.466 1.26 2.576.255 3.818 3.585 2.972.829-2.254.592-3.193-.18-5.8l-6.3-.646c-.627-3.4 1.363-10.316 2.9-13.173 2.883 1.636 6.084 8.252 9.092 11.042z" transform="translate(-6.406 87.966)"/><path d="m56.366-59.221.3 2.212c2.549.508 3.325.443 3.309-2.129-1.594-1.067-1.746-.9-3.607-.083" transform="translate(7.713 112.964)"/><path d="m50.957-82.632-.286 2.561c2.368.061 1.357.408 2.963-.981-1.067-2.055-.282-1.737-2.676-1.58" transform="translate(2.642 92.61)"/><path d="m54.631-80.225c2.187.337 2.359.168 2.467-1.952-1.925-1-2.867-.489-2.467 1.952" transform="translate(6.087 92.689)"/><path d="m16.56-8.158-3.26 10.031c-7.523-.964-4.183-6.293-2.977-12.622zm6.053-38.069c4.983.356 10.675 13.66 9.908 19.182-2.037 14.655-32.494 19.13-28.421-7.641.885-5.815 1.575-6.533 7.034-8.07 1.188-.335 11.388-3.477 11.479-3.471zm11.819 41.852c-.949 3.628-4.007.592-4.732 4.933 3.71 2.509 3.847-3.331 4.552 12.311l-10.812-.035c-.54-2.424-.082-3.763-2.2-5.248-2.6-1.824-4.76-.758-4.148-2.119l5.685.717 1.3 4.832c3.2.413 3.7.089 2.45-2.38-1.149-2.268-.867-3.4-2.1-5.9l-8.5-.9 2.833-9.227zm7.693 48.094c1.948.737 2.843 1.412 3.485 3.187-1.65 5.031-5.314 1.647-6.819-1.478zm27.827-6.458c1.964.022 7.857-3.415 10.083.215-1.233.837-22.412 1.127-25.728.17-3.952-1.142-4.578-.533-8.524-.86-3.68-7.049-.41-56.8.852-70.29.3-3.165-.677-7.978.948-10.453 2.123 1.128.971 2.021.491 9.543-.206 3.222-.336 6.619-.632 9.775-.968 10.374-2.921 55.431.468 60.509zm-59.438-84.515c-6.153 1.369-8.922 9.346-9.348 15.311-.744 10.409 2.273 12.96 7.576 18.086-1.757 4.242-3.099 11.884-2.342 16.389 1.918 2.149 2.426.763 3.662 3.625-2.5.358-4.02-.931-5.116 1.1-2.3 4.261 9.909 1.442 15.076 3.52l1.908 5.367c3.615.835 15.047-.787 18.73.749.646 1.228.682 17.145 2.706 23.007l5.945.952c1.1 4.237.989 4.125.226 5.278-2.645-.534-3.034-5.551-10.138-6.864-2.378 4.379-5.07 6.271-2.121 10.439 2.755 3.893 7.079 4.052 9.8-.159 9.78-.267 5.231-.453 5.914-7.31 5.665-1.38 27.334.412 29.858-1.224.52-2.086.358-5.485-.881-7.213-4.735-2.6-26.659.478-31.724-1.361-5.054-3.508 1.379-77.065.667-78.112-1.914-1.391-3.407-2.144-5.784-.666-1.572 2.469-3.154 51.14-4.078 59.086l-5 .5-.181-10.788c1.845-.663.789 1.026 2.4-1.188-.75-2.246-.211-1.325-2.253-2.705 1.76-1.3.783.145 1.634-1.742-3.266-4.656.607-4.4-8.128-5.134l-8.1-1.779c-3.623-1.591-1.364.281-1.985-1.932 2.025-3.088 12.06-1.1 14.878-13.869 2.394-10.844-5.82-17.014-7.344-20.9 3.1-1.92 4.291-1.321 4.141-4.943-4.353 1.165-5.68 2.529-10.468 1.7-5.492-.956-5.7 1.321-10.136 2.782" transform="translate(151.416 115.843)"/><path d="m4.76-21.389c-6.892.553-4.345 29.389-4.099 34.234l2.415 1.175c1.705 1.044 2.51 2.186 4.679.461.025-4.557-3.576.663-4.47-5.741a83.244 83.244 0 0 1 -.268-10.282 69.175 69.175 0 0 1 .441-10.131c.291-2.149 1.424-8.174 1.3-9.716" transform="translate(150.343 146.732)"/><path d="m13.19-3.082c1.71 1.403 1.88 1.242 2.257 3.322-2.423 2.186-6.01 2.116-7.84-.549.513-3.104 2.499-2.734 5.583-2.773zm4.041.558c-2.393-3.41-3.355-4.9-8.008-3.6-3.66 1.016-6.382 3.605-4.234 7.624 3.69 6.909 17.06 2.838 12.243-4.027" transform="translate(154.648 161.797)"/><path d="m7.3-43.675c-4.56 1.765-1.663 11.253 1.513 13.375 3.65 2.44 12.747-.434 14.3-4.22-3.767-1.409-7.73 3.673-12.027 1.991-5.531-2.165-1.964-8.687-3.786-11.146" transform="translate(155.37 124.045)"/><path d="m22.038-3.855c-2.883-.452-6.663-1.548-9.345-.412-1.698 4.767 7.384 3.842 10.737 3.99-.216-3.128-.141-.681-1.393-3.578" transform="translate(163.051 163.653)"/><path d="m7.023-15.849c-2.917.372-2.261 1.675-1.979 4.922.189 2.174-.05 4.1 1.525 5.167 1.9-2.1.9-7.366.454-10.09" transform="translate(155.205 152.371)"/><path d="m9.461-15.5c-2.562.841-2.065 8.2-.237 8.859 1.226-1.724 1.53-7.312.237-8.859" transform="translate(158.176 152.721)"/><path d="m11.333-13.543a4.457 4.457 0 0 0 -.621 6.311 5.366 5.366 0 0 0 .621-6.311" transform="translate(160.194 154.718)"/><path d="m7.768-46.379c-.752 1.624-1.1.609.011 2.708 2.117-.7 1.233-.09 1.99-1.875z" transform="translate(157.541 121.292)"/><path d="m12.008-44.483c1.517-1.456 1.3-.142.5-2.531-2.638.011-2.178 1.864-.5 2.531" transform="translate(161.173 120.645)"/></g></svg>