<svg width="80" height="86" viewBox="0 0 80 86" fill="none" xmlns="http://www.w3.org/2000/svg">
<path d="M59.4752 37.2287V20.9534C59.4752 20.4876 59.26 20.0572 58.9555 19.7166L40.7086 0.55574C40.3681 0.197494 39.8839 0 39.4003 0H10.4703C5.12943 0 0.863281 4.35538 0.863281 9.69691V64.4016C0.863281 69.7431 5.12943 74.027 10.4703 74.027H33.3062C37.6255 81.1965 45.4767 86 54.4204 86C68.0068 86 79.1019 74.9587 79.1019 61.3545C79.1203 49.4707 70.588 39.5409 59.4752 37.2287ZM41.1928 6.29161L53.4349 19.1786H45.4944C43.1284 19.1786 41.1928 17.2253 41.1928 14.8593V6.29161ZM10.4703 70.4419C7.11881 70.4419 4.44836 67.7531 4.44836 64.4016V9.69691C4.44836 6.32704 7.11881 3.58508 10.4703 3.58508H37.6078V14.8593C37.6078 19.2147 41.139 22.7637 45.4944 22.7637H55.8901V36.7622C55.3527 36.7445 54.9223 36.6907 54.4565 36.6907C48.2009 36.6907 42.4474 39.0928 38.1097 42.857H15.346C14.3598 42.857 13.5535 43.6633 13.5535 44.6488C13.5535 45.635 14.3598 46.4414 15.346 46.4414H34.7759C33.503 48.2339 32.4453 50.0265 31.6212 51.9981H15.346C14.3598 51.9981 13.5535 52.8045 13.5535 53.7907C13.5535 54.7762 14.3598 55.5832 15.346 55.5832H30.456C30.0078 57.3758 29.7749 59.3651 29.7749 61.3545C29.7749 64.5807 30.4022 67.7715 31.5314 70.4603H10.4703V70.4419ZM54.4388 82.4333C42.824 82.4333 33.3777 72.987 33.3777 61.3722C33.3777 49.7575 42.8056 40.3112 54.4388 40.3112C66.0712 40.3112 75.4991 49.7575 75.4991 61.3722C75.4991 72.987 66.0535 82.4333 54.4388 82.4333Z" fill="black"/>
<path d="M15.3463 37.4616H33.5033C34.4894 37.4616 35.2958 36.6546 35.2958 35.6691C35.2958 34.6829 34.4894 33.8766 33.5033 33.8766H15.3463C14.3601 33.8766 13.5537 34.6829 13.5537 35.6691C13.5537 36.6546 14.3601 37.4616 15.3463 37.4616Z" fill="black"/>
<path d="M63.6154 60.9956L56.249 68.9361V49.3631C56.249 48.377 55.442 47.5706 54.4565 47.5706C53.4703 47.5706 52.6639 48.377 52.6639 49.3631V68.9361L45.2431 60.9956C44.5621 60.2791 43.4152 60.2253 42.698 60.9064C41.9809 61.5874 41.9271 62.7166 42.6088 63.4338L53.0943 74.708C53.4349 75.0663 53.9007 75.2815 54.4027 75.2815C54.9046 75.2815 55.3705 75.0663 55.711 74.708L66.2149 63.4338C66.896 62.7166 66.8599 61.5697 66.1428 60.9064C65.4079 60.2253 64.2971 60.2791 63.6154 60.9956Z" fill="black"/>
</svg>
